;TYPE=PLATED
;Layer: PTH_Through
;EasyEDA Pro v2.1.51, 2024-03-10 10:17:56
;Gerber Generator version 0.3
M48
METRIC,LZ,000.00000
;Hole size 1 = 0.30500 METRIC
T01C0.30500
;Hole size 2 = 0.70002 METRIC
T02C0.70002
;Hole size 3 = 1.50002 METRIC
T03C1.50002
;Hole size 4 = 2.70000 METRIC
T04C2.70000
%
G05
G90
T01
X01300000Y01850000
X01323502Y01650000
X01323502Y01450000
X01319861Y01250000
X01500000Y01850000
X02000000Y01400000
X00350000Y01769989
X00430000Y01769989
X00350000Y01230011
X00430000Y01230011
T02
X00183746Y01068010G85X00103748Y01068010
X00183746Y01931991G85X00103748Y01931991
X00563756Y01068010G85X00483756Y01068010
X00563755Y01931991G85X00483758Y01931991
T03
X02610000Y01246000
X02610000Y01754000
T04
X00500000Y00500000
X02500000Y00500000
X02500000Y02500000
X00500000Y02500000
M30