G04 Layer: TopSilkscreenLayer*
G04 EasyEDA Pro v2.1.51, 2024-03-10 10:17:56*
G04 Gerber Generator version 0.3*
G04 Scale: 100 percent, Rotated: No, Reflected: No*
G04 Dimensions in millimeters*
G04 Leading zeros omitted, absolute positions, 3 integers and 5 decimals*
%FSLAX35Y35*%
%MOMM*%
%ADD10C,0.1524*%
%ADD11C,0.203*%
%ADD12C,0.25*%
%ADD13C,0.254*%
G75*


G04 Text Start*
G54D10*
G01X2088609Y1094235D02*
G01X2088609Y1044705D01*
G01X2085561Y1035561D01*
G01X2082513Y1032259D01*
G01X2076163Y1029211D01*
G01X2070067D01*
G01X2063717Y1032259D01*
G01X2060669Y1035561D01*
G01X2057621Y1044705D01*
G01Y1051055D01*
G01X2121883Y1078741D02*
G01X2121883Y1081789D01*
G01X2124931Y1088139D01*
G01X2127979Y1091187D01*
G01X2134075Y1094235D01*
G01X2146521D01*
G01X2152871Y1091187D01*
G01X2155919Y1088139D01*
G01X2158967Y1081789D01*
G01Y1075693D01*
G01X2155919Y1069597D01*
G01X2149569Y1060199D01*
G01X2118835Y1029211D01*
G01X2162015D01*
G01X1831261Y1604103D02*
G01X1824911Y1601055D01*
G01X1818815Y1594705D01*
G01X1815767Y1588609D01*
G01Y1576163D01*
G01X1818815Y1570067D01*
G01X1824911Y1563717D01*
G01X1831261Y1560669D01*
G01X1840405Y1557621D01*
G01X1855899D01*
G01X1865297Y1560669D01*
G01X1871393Y1563717D01*
G01X1877743Y1570067D01*
G01X1880791Y1576163D01*
G01Y1588609D01*
G01X1877743Y1594705D01*
G01X1871393Y1601055D01*
G01X1865297Y1604103D01*
G01X1831261Y1637377D02*
G01X1828213Y1637377D01*
G01X1821863Y1640425D01*
G01X1818815Y1643473D01*
G01X1815767Y1649569D01*
G01Y1662015D01*
G01X1818815Y1668365D01*
G01X1821863Y1671413D01*
G01X1828213Y1674461D01*
G01X1834309D01*
G01X1840405Y1671413D01*
G01X1849803Y1665063D01*
G01X1880791Y1634329D01*
G01Y1677509D01*
G01X744102Y1268741D02*
G01X741054Y1275091D01*
G01X734704Y1281187D01*
G01X728608Y1284235D01*
G01X716162D01*
G01X710066Y1281187D01*
G01X703716Y1275091D01*
G01X700668Y1268741D01*
G01X697620Y1259597D01*
G01Y1244103D01*
G01X700668Y1234705D01*
G01X703716Y1228609D01*
G01X710066Y1222259D01*
G01X716162Y1219211D01*
G01X728608D01*
G01X734704Y1222259D01*
G01X741054Y1228609D01*
G01X744102Y1234705D01*
G01X780424Y1284235D02*
G01X814460Y1284235D01*
G01X795918Y1259597D01*
G01X805062D01*
G01X811412Y1256549D01*
G01X814460Y1253247D01*
G01X817508Y1244103D01*
G01Y1237753D01*
G01X814460Y1228609D01*
G01X808364Y1222259D01*
G01X798966Y1219211D01*
G01X789568D01*
G01X780424Y1222259D01*
G01X777376Y1225561D01*
G01X774328Y1231657D01*
G01X1305767Y1537621D02*
G01X1370791Y1537621D01*
G01X1370791Y1537621D02*
G01X1370791Y1574705D01*
G01X1305767Y1604931D02*
G01X1370791Y1604931D01*
G01X1305767Y1604931D02*
G01X1305767Y1645063D01*
G01X1336755Y1604931D02*
G01X1336755Y1629569D01*
G01X1370791Y1604931D02*
G01X1370791Y1645063D01*
G01X1305767Y1675289D02*
G01X1370791Y1675289D01*
G01X1305767Y1675289D02*
G01X1305767Y1696879D01*
G01X1308815Y1706023D01*
G01X1314911Y1712373D01*
G01X1321261Y1715421D01*
G01X1330405Y1718469D01*
G01X1345899D01*
G01X1355297Y1715421D01*
G01X1361393Y1712373D01*
G01X1367743Y1706023D01*
G01X1370791Y1696879D01*
G01Y1675289D01*
G01X1318213Y1748695D02*
G01X1314911Y1754791D01*
G01X1305767Y1763935D01*
G01X1370791D01*
G01X1665767Y1347621D02*
G01X1730791Y1347621D01*
G01X1665767Y1347621D02*
G01X1665767Y1375561D01*
G01X1668815Y1384705D01*
G01X1671863Y1387753D01*
G01X1678213Y1391055D01*
G01X1684309D01*
G01X1690405Y1387753D01*
G01X1693453Y1384705D01*
G01X1696755Y1375561D01*
G01Y1347621D01*
G01X1696755Y1369211D02*
G01X1730791Y1391055D01*
G01X1678213Y1421281D02*
G01X1674911Y1427377D01*
G01X1665767Y1436521D01*
G01X1730791D01*
G01X754102Y1878740D02*
G01X751054Y1885090D01*
G01X744704Y1891186D01*
G01X738608Y1894234D01*
G01X726162D01*
G01X720066Y1891186D01*
G01X713716Y1885090D01*
G01X710668Y1878740D01*
G01X707620Y1869596D01*
G01Y1854102D01*
G01X710668Y1844704D01*
G01X713716Y1838608D01*
G01X720066Y1832258D01*
G01X726162Y1829210D01*
G01X738608D01*
G01X744704Y1832258D01*
G01X751054Y1838608D01*
G01X754102Y1844704D01*
G01X784328Y1881788D02*
G01X790424Y1885090D01*
G01X799568Y1894234D01*
G01Y1829210D01*
G01X707620Y1694234D02*
G01X707620Y1629210D01*
G01X707620Y1694234D02*
G01X735560Y1694234D01*
G01X744704Y1691186D01*
G01X747752Y1688138D01*
G01X751054Y1681788D01*
G01Y1675692D01*
G01X747752Y1669596D01*
G01X744704Y1666548D01*
G01X735560Y1663246D01*
G01X707620D01*
G01X729210Y1663246D02*
G01X751054Y1629210D01*
G01X784328Y1678740D02*
G01X784328Y1681788D01*
G01X787376Y1688138D01*
G01X790424Y1691186D01*
G01X796520Y1694234D01*
G01X808966D01*
G01X815316Y1691186D01*
G01X818364Y1688138D01*
G01X821412Y1681788D01*
G01Y1675692D01*
G01X818364Y1669596D01*
G01X812014Y1660198D01*
G01X781280Y1629210D01*
G01X824460D01*
G01X707620Y1494234D02*
G01X707620Y1429210D01*
G01X707620Y1494234D02*
G01X735560Y1494234D01*
G01X744704Y1491186D01*
G01X747752Y1488138D01*
G01X751054Y1481788D01*
G01Y1475692D01*
G01X747752Y1469596D01*
G01X744704Y1466548D01*
G01X735560Y1463246D01*
G01X707620D01*
G01X729210Y1463246D02*
G01X751054Y1429210D01*
G01X787376Y1494234D02*
G01X821412Y1494234D01*
G01X802870Y1469596D01*
G01X812014D01*
G01X818364Y1466548D01*
G01X821412Y1463246D01*
G01X824460Y1454102D01*
G01Y1447752D01*
G01X821412Y1438608D01*
G01X815316Y1432258D01*
G01X805918Y1429210D01*
G01X796520D01*
G01X787376Y1432258D01*
G01X784328Y1435560D01*
G01X781280Y1441656D01*
G01X78608Y954234D02*
G01X78608Y904704D01*
G01X75560Y895560D01*
G01X72512Y892258D01*
G01X66162Y889210D01*
G01X60066D01*
G01X53716Y892258D01*
G01X50668Y895560D01*
G01X47620Y904704D01*
G01Y911054D01*
G01X108834Y941788D02*
G01X114930Y945090D01*
G01X124074Y954234D01*
G01Y889210D01*
G54D11*
G01X120160Y2100011D02*
G01X120160Y2047687D01*
G01X152418Y2100011D02*
G01X152418Y2047687D01*
G01X152418Y2100011D02*
G01X187216Y2047687D01*
G01X187216Y2100011D02*
G01X187216Y2047687D01*
G01X2765147Y2120011D02*
G01X2760067Y2117471D01*
G01X2755241Y2112391D01*
G01X2752701Y2107311D01*
G01X2750161Y2099945D01*
G01Y2087499D01*
G01X2752701Y2080133D01*
G01X2755241Y2075053D01*
G01X2760067Y2069973D01*
G01X2765147Y2067687D01*
G01X2775053D01*
G01X2780133Y2069973D01*
G01X2784959Y2075053D01*
G01X2787499Y2080133D01*
G01X2790039Y2087499D01*
G01Y2099945D01*
G01X2787499Y2107311D01*
G01X2784959Y2112391D01*
G01X2780133Y2117471D01*
G01X2775053Y2120011D01*
G01X2765147D01*
G01X2822297Y2120011D02*
G01X2822297Y2082419D01*
G01X2824837Y2075053D01*
G01X2829663Y2069973D01*
G01X2837283Y2067687D01*
G01X2842109D01*
G01X2849729Y2069973D01*
G01X2854555Y2075053D01*
G01X2857095Y2082419D01*
G01Y2120011D01*
G01X2906879Y2120011D02*
G01X2906879Y2067687D01*
G01X2889353Y2120011D02*
G01X2924151Y2120011D01*
G36*
G01X1294994Y2090014D02*
G01X1294994Y2089404D01*
G01X1771040D01*
G01X1774088D01*
G01X1777898Y2089252D01*
G01X1778660Y2089099D01*
G01Y2083359D01*
G01X1901342D01*
G01X1925015D01*
G01Y1996643D01*
G01X1913331D01*
G01X1901495Y1996796D01*
G01X1901342Y1997862D01*
G01X1901495Y1999539D01*
G01X1901647Y2000301D01*
G01X1921053D01*
G01Y2080006D01*
G01X1901342D01*
G01Y2083359D01*
G01X1778660D01*
G01Y2043024D01*
G01X1778559Y2010004D01*
G01X1801063D01*
G01Y2016354D01*
G01X1820316D01*
G01X1840281Y2016506D01*
G01X1841043Y2016658D01*
G01Y2026666D01*
G01X1840890Y2037436D01*
G01X1840738Y2038198D01*
G01X1829105D01*
G01X1816659Y2038350D01*
G01X1815897Y2038502D01*
G01Y2058772D01*
G01X1816049Y2079854D01*
G01X1816202Y2080616D01*
G01X1873809D01*
G01Y2078025D01*
G01X1873656Y2074723D01*
G01X1873504Y2073961D01*
G01X1823466D01*
G01Y2044852D01*
G01X1848612D01*
G01X1874571Y2044700D01*
G01X1875282Y2044548D01*
G01Y2042109D01*
G01X1875130Y2038960D01*
G01X1874977Y2038198D01*
G01X1848612D01*
G01Y2016354D01*
G01X1888642D01*
G01Y2010004D01*
G01X1801063D01*
G01X1778559D01*
G01X1778508Y1996237D01*
G01X1778356Y1995475D01*
G01X1774850D01*
G01X1771193Y1995627D01*
G01X1771040Y2042566D01*
G01Y2089404D01*
G01X1294994D01*
G01Y2083359D01*
G01X1564386D01*
G01X1587703D01*
G01Y2080006D01*
G01X1568348D01*
G01Y2068932D01*
G01X1615288D01*
G01X1615592Y2072132D01*
G01X1616050Y2073808D01*
G01X1616507Y2075129D01*
G01X1617116Y2076348D01*
G01X1617878Y2077568D01*
G01X1618793Y2078939D01*
G01X1619707Y2080006D01*
G01X1620469Y2080768D01*
G01X1621536Y2081682D01*
G01X1622552Y2082444D01*
G01X1623466Y2083054D01*
G01X1624686Y2083765D01*
G01X1626057Y2084527D01*
G01X1627276Y2085137D01*
G01X1628496Y2085594D01*
G01X1629867Y2086051D01*
G01X1632864Y2086966D01*
G01X1636217Y2087575D01*
G01X1640129Y2087880D01*
G01X1643939Y2088032D01*
G01X1644853D01*
G01X1648358Y2087880D01*
G01X1652118Y2087728D01*
G01X1653337Y2087423D01*
G01X1654404Y2087270D01*
G01X1655775Y2087118D01*
G01X1657553Y2086661D01*
G01X1659534Y2086051D01*
G01X1661363Y2085442D01*
G01X1662887Y2084832D01*
G01X1664106Y2084222D01*
G01X1666189Y2083054D01*
G01X1667104Y2082444D01*
G01X1667866Y2081987D01*
G01X1668628Y2081378D01*
G01X1670456Y2079549D01*
G01X1671523Y2078177D01*
G01X1672285Y2077263D01*
G01X1672895Y2076196D01*
G01X1673504Y2074824D01*
G01X1673962Y2073351D01*
G01X1674266Y2071980D01*
G01X1674419Y2070151D01*
G01X1674266Y2067408D01*
G01X1673809Y2065172D01*
G01X1673200Y2063496D01*
G01X1672590Y2062277D01*
G01X1671828Y2061058D01*
G01X1671066Y2059991D01*
G01X1670456Y2059229D01*
G01X1668932Y2057705D01*
G01X1667866Y2056841D01*
G01X1665173Y2055012D01*
G01X1663649Y2054250D01*
G01X1662278Y2053641D01*
G01X1661058Y2053184D01*
G01X1659992Y2052726D01*
G01X1658925Y2052422D01*
G01X1657706Y2052117D01*
G01X1653642Y2051202D01*
G01X1651508Y2051050D01*
G01X1649679Y2050745D01*
G01X1644853Y2050593D01*
G01X1639976Y2050745D01*
G01X1639113Y2051050D01*
G01X1636065Y2051355D01*
G01X1633017Y2051964D01*
G01X1631645Y2052269D01*
G01X1630020Y2052726D01*
G01X1628496Y2053336D01*
G01X1625752Y2054555D01*
G01X1624533Y2055165D01*
G01X1623314Y2055927D01*
G01X1621231Y2057400D01*
G01X1620164Y2058314D01*
G01X1618640Y2059838D01*
G01X1617878Y2060905D01*
G01X1617116Y2062124D01*
G01X1616507Y2063344D01*
G01X1615592Y2066087D01*
G01X1615288Y2068932D01*
G01X1568348D01*
G01Y2034845D01*
G01X1601064D01*
G01Y2037283D01*
G01X1601216Y2040433D01*
G01X1601368Y2041195D01*
G01X1644244D01*
G01X1687881Y2041042D01*
G01X1688643Y2040890D01*
G01Y2038198D01*
G01X1688338Y2034997D01*
G01X1684985Y2034642D01*
G01X1675435Y2034540D01*
G01X1666037Y2034438D01*
G01X1663040Y2034083D01*
G01X1663192Y2023770D01*
G01Y2023313D01*
G01X1704848D01*
G01X1705762Y2023923D01*
G01X1712112Y2027123D01*
G01X1717599Y2030781D01*
G01X1718615Y2031492D01*
G01X1719529Y2032102D01*
G01X1720444Y2032864D01*
G01X1722577Y2034692D01*
G01X1724101Y2035912D01*
G01X1727860Y2039722D01*
G01X1729080Y2041195D01*
G01X1731366Y2043481D01*
G01X1733194Y2045919D01*
G01X1735480Y2049069D01*
G01X1736649Y2051202D01*
G01X1737411Y2052422D01*
G01X1738020Y2053488D01*
G01X1739240Y2055927D01*
G01X1739697Y2056994D01*
G01X1740154Y2058162D01*
G01X1741373Y2061210D01*
G01X1741830Y2062734D01*
G01X1742288Y2064106D01*
G01X1742897Y2066188D01*
G01X1743202Y2067408D01*
G01X1743507Y2068779D01*
G01X1743812Y2069998D01*
G01X1743964Y2071370D01*
G01X1744218Y2072589D01*
G01Y2073656D01*
G01X1739798Y2074113D01*
G01X1726844Y2074266D01*
G01X1708810Y2074418D01*
G01X1708048Y2074570D01*
G01Y2076958D01*
G01X1708201Y2080158D01*
G01X1708353Y2080920D01*
G01X1729537D01*
G01X1751533Y2080768D01*
G01X1752092Y2080362D01*
G01X1752295Y2079396D01*
G01X1752143Y2077720D01*
G01X1751838Y2074113D01*
G01X1751533Y2072284D01*
G01X1751228Y2070151D01*
G01X1750924Y2068932D01*
G01X1750771Y2067865D01*
G01X1750466Y2066341D01*
G01X1750009Y2065020D01*
G01X1749704Y2063648D01*
G01X1749247Y2061972D01*
G01X1748638Y2060448D01*
G01X1748180Y2059229D01*
G01X1747723Y2057857D01*
G01X1747114Y2056384D01*
G01X1745894Y2053641D01*
G01X1745437Y2052574D01*
G01X1744828Y2051507D01*
G01X1744116Y2050136D01*
G01X1743354Y2048662D01*
G01X1742440Y2047138D01*
G01X1740611Y2044395D01*
G01X1739544Y2042871D01*
G01X1738630Y2041652D01*
G01X1738020Y2040890D01*
G01X1737411Y2040026D01*
G01X1734871Y2036978D01*
G01X1734109Y2036216D01*
G01X1732585Y2034388D01*
G01X1729994Y2031797D01*
G01X1728622Y2030781D01*
G01X1727708Y2029866D01*
G01X1725930Y2028342D01*
G01X1725168Y2027580D01*
G01X1724406Y2026971D01*
G01X1723644Y2026514D01*
G01X1722882Y2025904D01*
G01X1721815Y2024990D01*
G01X1720291Y2023923D01*
G01X1719072Y2023008D01*
G01X1718056Y2022297D01*
G01X1716837Y2021535D01*
G01X1715008Y2020316D01*
G01X1712874Y2019097D01*
G01X1711655Y2018335D01*
G01X1710284Y2017725D01*
G01X1709420Y2017878D01*
G01X1705762Y2021535D01*
G01X1705000Y2022450D01*
G01X1704848Y2023313D01*
G01X1663192D01*
G01X1662887Y2013204D01*
G01X1662582Y2012442D01*
G01X1659839D01*
G01X1656385Y2012594D01*
G01X1655623Y2012747D01*
G01Y2034540D01*
G01X1647444D01*
G01X1638503Y2034388D01*
G01X1637741Y2034235D01*
G01Y2024075D01*
G01X1637589Y2013204D01*
G01X1637436Y2012442D01*
G01X1634084D01*
G01X1630629Y2012594D01*
G01X1630477Y2023618D01*
G01Y2034540D01*
G01X1616812D01*
G01X1602130Y2034692D01*
G01X1601064Y2034845D01*
G01X1568348D01*
G01Y2011223D01*
G01X1614678D01*
G01X1614983Y2024380D01*
G01X1615288Y2025142D01*
G01X1618183D01*
G01X1621688Y2024837D01*
G01X1622146Y2022297D01*
G01X1622298Y2015287D01*
G01X1622450Y2005279D01*
G01X1622552Y2004568D01*
G01X1648765D01*
G01X1675740Y2004416D01*
G01X1676502Y2004263D01*
G01Y2001672D01*
G01X1676400Y1999590D01*
G01X1676044Y1998472D01*
G01X1668221Y1998015D01*
G01X1645615Y1997862D01*
G01X1623009Y1998015D01*
G01X1615135Y1998320D01*
G01X1614830Y2001774D01*
G01X1614678Y2011223D01*
G01X1568348D01*
G01Y2000301D01*
G01X1587703D01*
G01Y1996643D01*
G01X1564386D01*
G01Y2083359D01*
G01X1294994D01*
G01Y2005736D01*
G01X1297127D01*
G01Y2007870D01*
G01X1298651D01*
G01X1300582Y2008022D01*
G01X1301801Y2008327D01*
G01X1302512Y2008632D01*
G01X1303020Y2009242D01*
G01X1303376Y2016862D01*
G01X1303477Y2038198D01*
G01X1303325Y2067408D01*
G01X1302868Y2068932D01*
G01X1302106Y2069694D01*
G01X1299718Y2069998D01*
G01X1297737D01*
G01Y2072437D01*
G01X1309675D01*
G01X1323035Y2072284D01*
G01X1325474Y2071980D01*
G01X1326947Y2071675D01*
G01X1328318Y2071370D01*
G01X1329842Y2070913D01*
G01X1331214Y2070303D01*
G01X1332433Y2069694D01*
G01X1333500Y2069084D01*
G01X1334414Y2068474D01*
G01X1335176Y2067865D01*
G01X1337412Y2065630D01*
G01X1338174Y2064563D01*
G01X1338936Y2063344D01*
G01X1339545Y2062124D01*
G01X1340155Y2060448D01*
G01X1340612Y2058924D01*
G01X1340764Y2055774D01*
G01X1340612Y2051964D01*
G01X1340307Y2050440D01*
G01X1340002Y2049069D01*
G01X1339545Y2047748D01*
G01X1338936Y2046529D01*
G01X1338174Y2045157D01*
G01X1337564Y2044090D01*
G01X1336954Y2043328D01*
G01X1335430Y2041804D01*
G01X1334719Y2041195D01*
G01X1333652Y2040433D01*
G01X1332128Y2039569D01*
G01X1330757Y2038807D01*
G01X1330350Y2038655D01*
G01X1348334D01*
G01X1348486Y2042262D01*
G01X1348638Y2043633D01*
G01X1348791Y2045919D01*
G01X1349096Y2048053D01*
G01X1349400Y2049831D01*
G01X1349705Y2051355D01*
G01X1350010Y2052726D01*
G01X1350467Y2054555D01*
G01X1351686Y2058162D01*
G01X1352296Y2059534D01*
G01X1353617Y2062277D01*
G01X1354531Y2063801D01*
G01X1355293Y2064868D01*
G01X1355750Y2065630D01*
G01X1356360Y2066341D01*
G01X1357427Y2067408D01*
G01X1358341Y2068474D01*
G01X1359408Y2069389D01*
G01X1360627Y2070303D01*
G01X1361491Y2070913D01*
G01X1362710Y2071522D01*
G01X1364082Y2072132D01*
G01X1365453Y2072589D01*
G01X1366672Y2072894D01*
G01X1369416Y2073199D01*
G01X1370127D01*
G01X1371041Y2073046D01*
G01X1373022Y2072894D01*
G01X1375308Y2072437D01*
G01X1395628D01*
G01X1402283D01*
G01X1407312Y2072335D01*
G01X1409090Y2071980D01*
G01Y2070760D01*
G01X1408836Y2070202D01*
G01X1408328Y2069998D01*
G01X1406957Y2069846D01*
G01X1405738Y2069236D01*
G01X1405128Y2068017D01*
G01Y2066188D01*
G01X1406957Y2053488D01*
G01X1407262Y2051660D01*
G01X1409395Y2036826D01*
G01X1409700Y2034997D01*
G01X1410919Y2026514D01*
G01X1411072Y2025142D01*
G01X1411173Y2024431D01*
G01X1411529Y2024075D01*
G01X1412138Y2024228D01*
G01X1412443Y2024990D01*
G01X1414221Y2034083D01*
G01X1414831Y2036826D01*
G01X1416660Y2045919D01*
G01X1417269Y2048662D01*
G01X1418488Y2054708D01*
G01X1418641Y2056384D01*
G01X1418488Y2058010D01*
G01X1417879Y2063496D01*
G01X1417726Y2064563D01*
G01X1417574Y2066188D01*
G01X1417269Y2068017D01*
G01X1416355Y2069389D01*
G01X1415593Y2069846D01*
G01X1414678Y2069998D01*
G01X1413967Y2070100D01*
G01X1413662Y2070456D01*
G01Y2071675D01*
G01X1413764Y2072437D01*
G01X1420165D01*
G01X1424940Y2072335D01*
G01X1426667Y2071980D01*
G01Y2070760D01*
G01X1426312Y2070202D01*
G01X1425448Y2069998D01*
G01X1423772Y2069541D01*
G01X1423314Y2068982D01*
G01X1423010Y2068170D01*
G01Y2066798D01*
G01X1423314Y2064715D01*
G01X1423619Y2062277D01*
G01X1425448Y2049526D01*
G01X1425753Y2047138D01*
G01X1427886Y2032254D01*
G01X1428191Y2029866D01*
G01X1428496Y2027733D01*
G01X1428648Y2026361D01*
G01X1428750Y2025650D01*
G01X1429106Y2025294D01*
G01X1429461D01*
G01X1429715Y2025599D01*
G01X1430020Y2026514D01*
G01X1431188Y2033778D01*
G01X1431798Y2037131D01*
G01X1433017Y2044395D01*
G01X1433322Y2045919D01*
G01X1434846Y2055012D01*
G01X1435151Y2056536D01*
G01X1436675Y2065630D01*
G01Y2067712D01*
G01X1436370Y2068678D01*
G01X1435760Y2069389D01*
G01X1434846Y2069846D01*
G01X1433627Y2069998D01*
G01X1432255D01*
G01Y2072437D01*
G01X1438046D01*
G01X1442364Y2072335D01*
G01X1443939Y2071980D01*
G01Y2070760D01*
G01X1443584Y2070202D01*
G01X1442872Y2069998D01*
G01X1441348Y2069694D01*
G01X1440434Y2069084D01*
G01X1439824Y2068322D01*
G01X1439418Y2067103D01*
G01X1439113Y2065630D01*
G01X1438504Y2061972D01*
G01X1438199Y2060448D01*
G01X1437284Y2055012D01*
G01X1436980Y2053488D01*
G01X1435760Y2046224D01*
G01X1435456Y2044700D01*
G01X1434541Y2039264D01*
G01X1434236Y2037740D01*
G01X1433017Y2030476D01*
G01X1432712Y2028952D01*
G01X1431798Y2023466D01*
G01X1431493Y2021992D01*
G01X1430325Y2014677D01*
G01X1429715Y2011375D01*
G01X1429106Y2007718D01*
G01X1428953Y2006498D01*
G01Y2005736D01*
G01X1447749D01*
G01Y2007870D01*
G01X1448918D01*
G01X1450594Y2008022D01*
G01X1451813Y2008327D01*
G01X1452524Y2008632D01*
G01X1453032Y2009242D01*
G01X1453388Y2016862D01*
G01X1453490Y2038198D01*
G01X1453337Y2067408D01*
G01X1452880Y2068932D01*
G01X1452118Y2069694D01*
G01X1449832Y2069998D01*
G01X1448054D01*
G01Y2072437D01*
G01X1466799D01*
G01X1498041D01*
G01X1509674D01*
G01X1522730Y2072284D01*
G01X1525168Y2071980D01*
G01X1526692Y2071675D01*
G01X1528013Y2071370D01*
G01X1529537Y2070913D01*
G01X1530909Y2070303D01*
G01X1532433Y2069541D01*
G01X1533500Y2068779D01*
G01X1534262Y2068322D01*
G01X1535328Y2067408D01*
G01X1536192Y2066188D01*
G01X1536954Y2065172D01*
G01X1537564Y2063953D01*
G01X1538021Y2062734D01*
G01X1538478Y2061210D01*
G01X1538783Y2059838D01*
G01X1538935Y2057146D01*
G01X1538783Y2054403D01*
G01X1538478Y2052574D01*
G01X1538021Y2050593D01*
G01X1537411Y2049069D01*
G01X1536649Y2047596D01*
G01X1535735Y2046224D01*
G01X1534871Y2045157D01*
G01X1533042Y2043328D01*
G01X1531518Y2042262D01*
G01X1529994Y2041347D01*
G01X1528623Y2040738D01*
G01X1527404Y2040280D01*
G01X1525930Y2039874D01*
G01X1525270Y2039569D01*
G01X1525168Y2039112D01*
G01X1526083Y2036674D01*
G01X1526540Y2035607D01*
G01X1527099Y2034235D01*
G01X1530147Y2026666D01*
G01X1530604Y2025447D01*
G01X1531061Y2024380D01*
G01X1531671Y2023008D01*
G01X1534719Y2015439D01*
G01X1535176Y2014220D01*
G01X1535582Y2013204D01*
G01X1536192Y2011832D01*
G01X1536954Y2010156D01*
G01X1538021Y2008937D01*
G01X1539240Y2008175D01*
G01X1541374Y2007870D01*
G01X1542898D01*
G01Y2005736D01*
G01X1537564D01*
G01X1533500Y2005889D01*
G01X1531823Y2006346D01*
G01X1531061Y2007870D01*
G01X1530452Y2009546D01*
G01X1529842Y2011070D01*
G01X1529232Y2012747D01*
G01X1528013Y2015744D01*
G01X1527404Y2017420D01*
G01X1526794Y2018944D01*
G01X1526235Y2020621D01*
G01X1525016Y2023618D01*
G01X1524406Y2025294D01*
G01X1523797Y2026818D01*
G01X1523187Y2028495D01*
G01X1522578Y2030019D01*
G01X1520292Y2036064D01*
G01X1519834Y2037131D01*
G01X1519377Y2038502D01*
G01X1519225Y2039417D01*
G01X1510132D01*
G01Y2024837D01*
G01X1510436Y2009546D01*
G01X1511351Y2008480D01*
G01X1512418Y2008022D01*
G01X1514399Y2007870D01*
G01X1515923D01*
G01Y2005736D01*
G01X1498041D01*
G01Y2007870D01*
G01X1499260D01*
G01X1500886Y2008022D01*
G01X1501953Y2008175D01*
G01X1502562Y2008378D01*
G01X1503172Y2008937D01*
G01X1503629Y2016760D01*
G01X1503782Y2038807D01*
G01X1503477Y2068474D01*
G01X1502715Y2069541D01*
G01X1501851Y2069897D01*
G01X1500175Y2069998D01*
G01X1498041D01*
G01Y2072437D01*
G01X1466799D01*
G01X1486052Y2072132D01*
G01X1486662Y2071065D01*
G01X1488034Y2066950D01*
G01X1488948Y2063953D01*
G01X1490320Y2059838D01*
G01X1490167Y2059229D01*
G01X1489558Y2058772D01*
G01X1488796Y2058670D01*
G01X1488338Y2058924D01*
G01X1487729Y2059838D01*
G01X1487119Y2060905D01*
G01X1486205Y2062277D01*
G01X1485443Y2063496D01*
G01X1484833Y2064258D01*
G01X1481988Y2067103D01*
G01X1480922Y2068017D01*
G01X1479702Y2068779D01*
G01X1478331Y2069389D01*
G01X1476959Y2069846D01*
G01X1469238Y2069998D01*
G01X1461211Y2069694D01*
G01X1460144Y2068779D01*
G01X1459687Y2067712D01*
G01X1459535Y2055012D01*
G01Y2042719D01*
G01X1465631D01*
G01X1472438Y2042871D01*
G01X1473962Y2043176D01*
G01X1475435Y2043786D01*
G01X1476807Y2044852D01*
G01X1477569Y2045919D01*
G01X1478026Y2046986D01*
G01X1478331Y2050136D01*
G01X1478432Y2052117D01*
G01X1478788Y2052879D01*
G01X1480007D01*
G01X1480769Y2052726D01*
G01Y2030019D01*
G01X1478331D01*
G01Y2031644D01*
G01X1478178Y2034083D01*
G01X1477874Y2035302D01*
G01X1477569Y2036369D01*
G01X1476959Y2037588D01*
G01X1476197Y2038655D01*
G01X1475283Y2039417D01*
G01X1474114Y2040026D01*
G01X1466494Y2040280D01*
G01X1459535D01*
G01Y2026209D01*
G01X1459687Y2011070D01*
G01X1460144Y2009394D01*
G01X1461059Y2008480D01*
G01X1462126Y2008022D01*
G01X1467866Y2007870D01*
G01X1473657Y2008022D01*
G01X1476350Y2008327D01*
G01X1477874Y2008632D01*
G01X1479398Y2009089D01*
G01X1480464Y2009546D01*
G01X1481684Y2010156D01*
G01X1483055Y2011070D01*
G01X1484071Y2011985D01*
G01X1485595Y2013509D01*
G01X1486205Y2014220D01*
G01X1486967Y2015287D01*
G01X1487729Y2016506D01*
G01X1488338Y2017725D01*
G01X1488948Y2019097D01*
G01X1489558Y2020621D01*
G01X1489862Y2021230D01*
G01X1490167Y2021383D01*
G01X1491082Y2021078D01*
G01X1491488Y2020824D01*
G01X1491539Y2020468D01*
G01X1491082Y2018944D01*
G01X1490472Y2016811D01*
G01X1490015Y2015287D01*
G01X1489710Y2014068D01*
G01X1489253Y2012442D01*
G01X1488796Y2011070D01*
G01X1488491Y2009699D01*
G01X1487576Y2006651D01*
G01X1487424Y2005736D01*
G01X1447749D01*
G01X1428953D01*
G01X1427886D01*
G01X1427023Y2005889D01*
G01X1426515Y2006346D01*
G01X1426058Y2008327D01*
G01X1425753Y2010156D01*
G01X1425448Y2012290D01*
G01X1425143Y2014068D01*
G01X1424534Y2018335D01*
G01X1424229Y2020164D01*
G01X1423619Y2024380D01*
G01X1423314Y2026209D01*
G01X1423010Y2028342D01*
G01X1422705Y2030171D01*
G01X1422146Y2034388D01*
G01X1421841Y2036216D01*
G01X1421232Y2040433D01*
G01X1420927Y2042262D01*
G01X1420622Y2044395D01*
G01X1420317Y2046224D01*
G01X1420063Y2046732D01*
G01X1419708Y2046834D01*
G01X1419098Y2045919D01*
G01X1416355Y2032254D01*
G01X1416050Y2030476D01*
G01X1411529Y2007718D01*
G01X1411376Y2006498D01*
G01Y2005736D01*
G01X1410157D01*
G01X1409192Y2005889D01*
G01X1408786Y2006194D01*
G01X1408481Y2008022D01*
G01X1408176Y2010156D01*
G01X1407871Y2011985D01*
G01X1407566Y2014068D01*
G01X1407262Y2015896D01*
G01X1406652Y2020164D01*
G01X1406347Y2021992D01*
G01X1406042Y2024075D01*
G01X1405738Y2025904D01*
G01X1405433Y2028038D01*
G01X1405128Y2029866D01*
G01X1404874Y2031949D01*
G01X1404569Y2033778D01*
G01X1404264Y2035912D01*
G01X1403960Y2037740D01*
G01X1403350Y2041957D01*
G01X1403045Y2043786D01*
G01X1402740Y2045919D01*
G01X1402436Y2047748D01*
G01X1402131Y2049831D01*
G01X1401826Y2051660D01*
G01X1401521Y2053793D01*
G01X1401216Y2055622D01*
G01X1400912Y2057705D01*
G01X1400607Y2059534D01*
G01X1400302Y2061667D01*
G01X1399997Y2063496D01*
G01X1399692Y2065630D01*
G01X1399540Y2067103D01*
G01X1399235Y2068627D01*
G01X1398626Y2069541D01*
G01X1398067Y2069897D01*
G01X1396949Y2069998D01*
G01X1395628D01*
G01Y2072437D01*
G01X1375308D01*
G01X1376832Y2071827D01*
G01X1378204Y2071218D01*
G01X1379677Y2070303D01*
G01X1381049Y2069389D01*
G01X1381963Y2068627D01*
G01X1382725Y2067865D01*
G01X1383944Y2066341D01*
G01X1384859Y2065325D01*
G01X1385773Y2063953D01*
G01X1386535Y2062734D01*
G01X1387145Y2061667D01*
G01X1387704Y2060448D01*
G01X1388313Y2059076D01*
G01X1389685Y2055470D01*
G01X1390142Y2053946D01*
G01X1390599Y2052574D01*
G01X1391209Y2049831D01*
G01X1391514Y2047748D01*
G01X1391818Y2045310D01*
G01X1391971Y2039569D01*
G01X1391818Y2033778D01*
G01X1391514Y2030781D01*
G01X1391209Y2028647D01*
G01X1390904Y2027123D01*
G01X1390447Y2024990D01*
G01X1389837Y2022856D01*
G01X1389228Y2021078D01*
G01X1388618Y2019554D01*
G01X1386840Y2015896D01*
G01X1386230Y2014830D01*
G01X1385011Y2013052D01*
G01X1384249Y2012137D01*
G01X1383335Y2011070D01*
G01X1382116Y2009699D01*
G01X1380592Y2008480D01*
G01X1379068Y2007413D01*
G01X1377899Y2006651D01*
G01X1376832Y2006194D01*
G01X1375613Y2005736D01*
G01X1373784Y2005279D01*
G01X1372108Y2005025D01*
G01X1370127Y2004873D01*
G01X1368044Y2005025D01*
G01X1366368Y2005432D01*
G01X1364386Y2006041D01*
G01X1363015Y2006651D01*
G01X1361948Y2007260D01*
G01X1361084Y2007870D01*
G01X1360322Y2008327D01*
G01X1359560Y2008937D01*
G01X1356512Y2011985D01*
G01X1355598Y2013204D01*
G01X1354531Y2014677D01*
G01X1353617Y2016049D01*
G01X1352855Y2017420D01*
G01X1352296Y2018640D01*
G01X1351839Y2019706D01*
G01X1351382Y2020926D01*
G01X1350772Y2022450D01*
G01X1350315Y2023770D01*
G01X1349705Y2026209D01*
G01X1349096Y2029257D01*
G01X1348791Y2031340D01*
G01X1348486Y2034997D01*
G01X1348334Y2038655D01*
G01X1330350D01*
G01X1328318Y2037893D01*
G01X1326540Y2037436D01*
G01X1324864Y2037131D01*
G01X1316990Y2036978D01*
G01X1309522D01*
G01Y2024532D01*
G01X1309675Y2011070D01*
G01X1310132Y2009394D01*
G01X1311046Y2008480D01*
G01X1312113Y2008022D01*
G01X1314247Y2007870D01*
G01X1315923D01*
G01Y2005736D01*
G01X1297127D01*
G01X1294994D01*
G01Y1989988D01*
G01X1944980D01*
G01Y2090014D01*
G37*
G36*
G01X1645310Y2081530D02*
G01X1640586Y2081378D01*
G01X1638808Y2081225D01*
G01X1636827Y2080920D01*
G01X1635608Y2080616D01*
G01X1634541Y2080463D01*
G01X1633169Y2080158D01*
G01X1631645Y2079701D01*
G01X1630324Y2079092D01*
G01X1628800Y2078330D01*
G01X1627276Y2077263D01*
G01X1626057Y2076348D01*
G01X1624990Y2075282D01*
G01X1624076Y2073808D01*
G01X1623466Y2072589D01*
G01X1623162Y2069541D01*
G01X1623466Y2066341D01*
G01X1624076Y2065020D01*
G01X1624686Y2063953D01*
G01X1625143Y2063191D01*
G01X1625752Y2062429D01*
G01X1628191Y2060600D01*
G01X1629105Y2059991D01*
G01X1630172Y2059534D01*
G01X1632560Y2058619D01*
G01X1634693Y2058010D01*
G01X1636065Y2057705D01*
G01X1637284Y2057400D01*
G01X1639113Y2057298D01*
G01X1640586Y2057146D01*
G01X1644548Y2056994D01*
G01X1648765Y2057146D01*
G01X1650441Y2057298D01*
G01X1652270Y2057552D01*
G01X1653489Y2057857D01*
G01X1654556Y2058010D01*
G01X1656690Y2058619D01*
G01X1658010Y2059076D01*
G01X1659687Y2059686D01*
G01X1660906Y2060296D01*
G01X1661820Y2060905D01*
G01X1662582Y2061515D01*
G01X1663649Y2062429D01*
G01X1665021Y2063801D01*
G01X1665783Y2065172D01*
G01X1666189Y2066188D01*
G01X1666494Y2069236D01*
G01X1666392Y2071370D01*
G01X1666037Y2072589D01*
G01X1665326Y2074113D01*
G01X1664716Y2075129D01*
G01X1664106Y2075891D01*
G01X1663344Y2076653D01*
G01X1662125Y2077568D01*
G01X1660906Y2078330D01*
G01X1658163Y2079701D01*
G01X1656994Y2080158D01*
G01X1655775Y2080463D01*
G01X1654251Y2080768D01*
G01X1653032Y2081073D01*
G01X1649984Y2081378D01*
G37*
G36*
G01X1369720Y2070456D02*
G01X1367892Y2070151D01*
G01X1366368Y2069694D01*
G01X1365148Y2069084D01*
G01X1364082Y2068474D01*
G01X1363167Y2067712D01*
G01X1362405Y2066950D01*
G01X1361491Y2065934D01*
G01X1360780Y2064868D01*
G01X1360170Y2063801D01*
G01X1358951Y2061362D01*
G01X1358341Y2059686D01*
G01X1357732Y2057705D01*
G01X1357274Y2056232D01*
G01X1356665Y2052879D01*
G01X1356360Y2050745D01*
G01X1356055Y2047748D01*
G01X1355903Y2039569D01*
G01X1356055Y2031340D01*
G01X1356208Y2030171D01*
G01X1356360Y2028038D01*
G01X1356665Y2025904D01*
G01X1356970Y2024075D01*
G01X1357274Y2022602D01*
G01X1357579Y2021230D01*
G01X1358036Y2019402D01*
G01X1358646Y2017573D01*
G01X1359256Y2016201D01*
G01X1360627Y2013509D01*
G01X1361643Y2011985D01*
G01X1362558Y2010766D01*
G01X1363624Y2009699D01*
G01X1364844Y2008784D01*
G01X1365758Y2008175D01*
G01X1367130Y2007718D01*
G01X1368196Y2007413D01*
G01X1369873Y2007260D01*
G01X1372108Y2007413D01*
G01X1373327Y2007718D01*
G01X1374546Y2008175D01*
G01X1376070Y2008937D01*
G01X1377137Y2009699D01*
G01X1377899Y2010308D01*
G01X1378661Y2011070D01*
G01X1379220Y2011832D01*
G01X1379982Y2012899D01*
G01X1380744Y2014068D01*
G01X1381354Y2015287D01*
G01X1381963Y2016658D01*
G01X1382878Y2019706D01*
G01X1383335Y2021383D01*
G01X1383640Y2022856D01*
G01X1383944Y2024990D01*
G01X1384249Y2027733D01*
G01X1384554Y2031949D01*
G01X1384706Y2038350D01*
G01X1384554Y2044700D01*
G01X1384249Y2048662D01*
G01X1384097Y2049678D01*
G01X1383944Y2051050D01*
G01X1383335Y2054708D01*
G01X1383030Y2055927D01*
G01X1382725Y2057400D01*
G01X1382268Y2059076D01*
G01X1381354Y2061820D01*
G01X1380744Y2063191D01*
G01X1379982Y2064715D01*
G01X1378915Y2066188D01*
G01X1378052Y2067408D01*
G01X1377290Y2068170D01*
G01X1376070Y2068932D01*
G01X1374699Y2069694D01*
G01X1373175Y2070151D01*
G01X1371498Y2070456D01*
G37*
G36*
G01X1517142Y2069998D02*
G01X1511808Y2069694D01*
G01X1510589Y2068932D01*
G01X1510284Y2065274D01*
G01X1510132Y2055165D01*
G01X1510284Y2041652D01*
G01X1514399Y2041500D01*
G01X1519377Y2041652D01*
G01X1521816Y2041957D01*
G01X1523797Y2042414D01*
G01X1525168Y2043024D01*
G01X1526388Y2043633D01*
G01X1527404Y2044243D01*
G01X1528318Y2045005D01*
G01X1529842Y2046529D01*
G01X1530452Y2047291D01*
G01X1530909Y2048205D01*
G01X1531366Y2049221D01*
G01X1531823Y2050593D01*
G01X1532128Y2051964D01*
G01X1532280Y2055165D01*
G01X1532128Y2058924D01*
G01X1531671Y2061058D01*
G01X1531061Y2062886D01*
G01X1530452Y2064106D01*
G01X1529842Y2065020D01*
G01X1528623Y2066493D01*
G01X1527556Y2067560D01*
G01X1526083Y2068474D01*
G01X1524711Y2069084D01*
G01X1523340Y2069541D01*
G01X1522120Y2069846D01*
G37*
G36*
G01X1317447Y2069998D02*
G01X1311199Y2069694D01*
G01X1310132Y2068779D01*
G01X1309675Y2067712D01*
G01X1309522Y2053336D01*
G01X1309675Y2039264D01*
G01X1314399Y2039112D01*
G01X1319378Y2039264D01*
G01X1322426Y2039569D01*
G01X1323950Y2039874D01*
G01X1325474Y2040280D01*
G01X1328166Y2041652D01*
G01X1329538Y2042566D01*
G01X1330604Y2043328D01*
G01X1331366Y2044090D01*
G01X1332128Y2045157D01*
G01X1332890Y2046529D01*
G01X1333500Y2048205D01*
G01X1333957Y2049526D01*
G01X1334262Y2051964D01*
G01X1334414Y2053946D01*
G01X1334262Y2056536D01*
G01X1333957Y2058924D01*
G01X1333500Y2061210D01*
G01X1332890Y2062886D01*
G01X1331824Y2065020D01*
G01X1331214Y2065782D01*
G01X1329690Y2067255D01*
G01X1328623Y2068017D01*
G01X1327404Y2068627D01*
G01X1326236Y2069084D01*
G01X1324712Y2069541D01*
G01X1323340Y2069846D01*
G37*
G01X1429234Y1980011D02*
G01X1429234Y1927687D01*
G01X1429234Y1927687D02*
G01X1459206Y1927687D01*
G01X1491464Y1980011D02*
G01X1491464Y1927687D01*
G01X1491464Y1980011D02*
G01X1523722Y1980011D01*
G01X1491464Y1954865D02*
G01X1511276Y1954865D01*
G01X1491464Y1927687D02*
G01X1523722Y1927687D01*
G01X1555980Y1980011D02*
G01X1555980Y1927687D01*
G01X1555980Y1980011D02*
G01X1573506Y1980011D01*
G01X1580872Y1977471D01*
G01X1585952Y1972391D01*
G01X1588238Y1967311D01*
G01X1590778Y1959945D01*
G01Y1947499D01*
G01X1588238Y1940133D01*
G01X1585952Y1935053D01*
G01X1580872Y1929973D01*
G01X1573506Y1927687D01*
G01X1555980D01*
G36*
G01X771195Y2941523D02*
G01X771195Y2916987D01*
G01X1248207D01*
G01X1273353D01*
G01Y2909976D01*
G01X1256690D01*
G01Y2905912D01*
G01X1302410D01*
G01X1302715Y2909722D01*
G01X1303172Y2911043D01*
G01X1303630Y2912262D01*
G01X1304239Y2913482D01*
G01X1304849Y2914548D01*
G01X1305458Y2915463D01*
G01X1306068Y2916225D01*
G01X1308354Y2918511D01*
G01X1309522Y2919374D01*
G01X1310894Y2920289D01*
G01X1311961Y2920898D01*
G01X1314094Y2921965D01*
G01X1315618Y2922575D01*
G01X1316990Y2923032D01*
G01X1318158Y2923489D01*
G01X1319225Y2923794D01*
G01X1320597Y2924099D01*
G01X1322273Y2924404D01*
G01X1323492Y2924708D01*
G01X1331062Y2925013D01*
G01X1331824D01*
G01X1335329Y2924861D01*
G01X1339240Y2924708D01*
G01X1340460Y2924404D01*
G01X1342593Y2924099D01*
G01X1343965Y2923794D01*
G01X1345743Y2923337D01*
G01X1347572Y2922727D01*
G01X1349096Y2922118D01*
G01X1350467Y2921508D01*
G01X1351991Y2920746D01*
G01X1353007Y2919984D01*
G01X1353922Y2919527D01*
G01X1354836Y2918917D01*
G01X1356970Y2917139D01*
G01X1357579Y2916377D01*
G01X1358494Y2915310D01*
G01X1359408Y2913939D01*
G01X1360018Y2912872D01*
G01X1360932Y2910434D01*
G01X1361237Y2909418D01*
G01X1361389Y2908351D01*
G01X1361491Y2907132D01*
G01X1361389Y2904998D01*
G01X1361084Y2903169D01*
G01X1360780Y2901798D01*
G01X1360170Y2900172D01*
G01X1359256Y2898648D01*
G01X1358189Y2897124D01*
G01X1357274Y2895905D01*
G01X1356208Y2894838D01*
G01X1354684Y2893619D01*
G01X1353160Y2892552D01*
G01X1351991Y2891841D01*
G01X1350772Y2891231D01*
G01X1349400Y2890622D01*
G01X1346962Y2889707D01*
G01X1345743Y2889402D01*
G01X1344676Y2889098D01*
G01X1343355Y2888793D01*
G01X1341831Y2888488D01*
G01X1340612Y2888183D01*
G01X1338631Y2888031D01*
G01X1336802Y2887726D01*
G01X1331976Y2887574D01*
G01X1327099Y2887726D01*
G01X1326236Y2888031D01*
G01X1324254Y2888183D01*
G01X1322121Y2888488D01*
G01X1320902Y2888793D01*
G01X1319835Y2888945D01*
G01X1317752Y2889555D01*
G01X1316380Y2890012D01*
G01X1314856Y2890622D01*
G01X1313637Y2891079D01*
G01X1312570Y2891536D01*
G01X1310132Y2893009D01*
G01X1309268Y2893619D01*
G01X1308506Y2894228D01*
G01X1306373Y2896057D01*
G01X1305458Y2897124D01*
G01X1304544Y2898496D01*
G01X1303782Y2899867D01*
G01X1303172Y2901239D01*
G01X1302715Y2902407D01*
G01X1302410Y2905912D01*
G01X1256690D01*
G01Y2874264D01*
G01X1287882D01*
G01X1288034Y2877109D01*
G01X1288186Y2878176D01*
G01X1331519D01*
G01X1375308Y2877871D01*
G01X1375664Y2877109D01*
G01X1375766Y2875280D01*
G01X1375461Y2872283D01*
G01X1375156Y2871521D01*
G01X1350010D01*
G01Y2861208D01*
G01Y2859735D01*
G01X1391717D01*
G01X1391818Y2860142D01*
G01X1392580Y2860751D01*
G01X1398016Y2863494D01*
G01X1399540Y2864409D01*
G01X1402283Y2866238D01*
G01X1403502Y2866949D01*
G01X1404417Y2867558D01*
G01X1405585Y2868320D01*
G01X1406652Y2869235D01*
G01X1408176Y2870454D01*
G01X1410005Y2871978D01*
G01X1411072Y2873045D01*
G01X1412443Y2874264D01*
G01X1413205Y2875178D01*
G01X1417879Y2879852D01*
G01X1418793Y2881071D01*
G01X1420012Y2882595D01*
G01X1420774Y2883662D01*
G01X1422552Y2886354D01*
G01X1424076Y2888793D01*
G01X1424838Y2890164D01*
G01X1426058Y2892552D01*
G01X1426667Y2893924D01*
G01X1427124Y2894990D01*
G01X1427582Y2896210D01*
G01X1428191Y2897734D01*
G01X1428648Y2898953D01*
G01X1428953Y2900172D01*
G01X1429410Y2901493D01*
G01X1429868Y2903017D01*
G01X1430325Y2904998D01*
G01X1430782Y2907132D01*
G01X1431036Y2908656D01*
G01X1431188Y2910129D01*
G01Y2911196D01*
G01X1413916D01*
G01X1395933Y2911348D01*
G01X1395171Y2911500D01*
G01Y2913939D01*
G01X1395324Y2917139D01*
G01X1395476Y2917901D01*
G01X1416355D01*
G01X1438351Y2917749D01*
G01X1439418Y2917596D01*
G01Y2916530D01*
G01X1439266Y2915006D01*
G01X1438961Y2912872D01*
G01X1438808Y2910738D01*
G01X1438504Y2908503D01*
G01X1438199Y2907132D01*
G01X1438046Y2905912D01*
G01X1436675Y2900477D01*
G01X1436065Y2898496D01*
G01X1434846Y2895143D01*
G01X1434236Y2893619D01*
G01X1433779Y2892450D01*
G01X1433170Y2891079D01*
G01X1431950Y2888640D01*
G01X1430477Y2885897D01*
G01X1428648Y2882900D01*
G01X1427124Y2880766D01*
G01X1426210Y2879395D01*
G01X1425753Y2878785D01*
G01X1457858D01*
G01X1458011Y2925013D01*
G01X1458468Y2926232D01*
G01X1459281Y2926537D01*
G01X1461059Y2926690D01*
G01X1464412Y2926537D01*
G01X1465478Y2926385D01*
G01Y2846984D01*
G01X1488186D01*
G01Y2853334D01*
G01X1507439D01*
G01X1527404Y2853487D01*
G01X1528166Y2853639D01*
G01Y2863647D01*
G01X1528013Y2874416D01*
G01X1527861Y2875178D01*
G01X1515618D01*
G01X1506322Y2875280D01*
G01X1503020Y2875585D01*
G01X1502715Y2895448D01*
G01X1502867Y2916225D01*
G01X1503020Y2917596D01*
G01X1531214D01*
G01X1560170Y2917444D01*
G01X1560932Y2917292D01*
G01Y2916987D01*
G01X1590294D01*
G01X1615440D01*
G01Y2841193D01*
G01X1635150D01*
G01Y2846070D01*
G01X1635455Y2851201D01*
G01X1636065Y2851963D01*
G01X1644548Y2859227D01*
G01X1646377Y2860751D01*
G01X1647444Y2861818D01*
G01X1648612Y2862732D01*
G01X1650136Y2864256D01*
G01X1651660Y2865476D01*
G01X1662278Y2876042D01*
G01X1663802Y2877871D01*
G01X1664564Y2878633D01*
G01X1666342Y2880919D01*
G01X1667866Y2883052D01*
G01X1669085Y2885135D01*
G01X1669694Y2886354D01*
G01X1670304Y2888031D01*
G01X1670761Y2889555D01*
G01X1671066Y2890774D01*
G01X1671218Y2893771D01*
G01X1671066Y2897124D01*
G01X1670609Y2898953D01*
G01X1669999Y2900477D01*
G01X1669542Y2901340D01*
G01X1668932Y2902102D01*
G01X1667256Y2903779D01*
G01X1666342Y2904541D01*
G01X1665326Y2905150D01*
G01X1663954Y2905760D01*
G01X1662582Y2906217D01*
G01X1661363Y2906522D01*
G01X1659992Y2906674D01*
G01X1658010Y2906827D01*
G01X1656537D01*
G01X1653184Y2906522D01*
G01X1652118Y2906370D01*
G01X1650441Y2906065D01*
G01X1648917Y2905608D01*
G01X1647596Y2905303D01*
G01X1646072Y2904846D01*
G01X1644853Y2904388D01*
G01X1643786Y2903931D01*
G01X1640129Y2902102D01*
G01X1638808Y2901340D01*
G01X1637589Y2900782D01*
G01X1636979Y2900629D01*
G01Y2905303D01*
G01X1637132Y2910434D01*
G01X1638046Y2911196D01*
G01X1639418Y2911805D01*
G01X1643482Y2913177D01*
G01X1645310Y2913634D01*
G01X1646834Y2914091D01*
G01X1650136Y2914701D01*
G01X1652575Y2915006D01*
G01X1656842Y2915158D01*
G01X1661363Y2915006D01*
G01X1665021Y2914396D01*
G01X1666799Y2913939D01*
G01X1668628Y2913329D01*
G01X1670152Y2912720D01*
G01X1671371Y2912110D01*
G01X1672438Y2911500D01*
G01X1673352Y2910891D01*
G01X1674419Y2910129D01*
G01X1675435Y2909265D01*
G01X1677264Y2907436D01*
G01X1678330Y2905912D01*
G01X1679092Y2904693D01*
G01X1679702Y2903322D01*
G01X1680312Y2901798D01*
G01X1680769Y2900020D01*
G01X1681074Y2898343D01*
G01X1681226Y2895752D01*
G01X1681074Y2892857D01*
G01X1680769Y2890774D01*
G01X1680312Y2888336D01*
G01X1679702Y2886354D01*
G01X1679092Y2884830D01*
G01X1678483Y2883510D01*
G01X1676654Y2880309D01*
G01X1675130Y2878176D01*
G01X1674673Y2877414D01*
G01X1674063Y2876652D01*
G01X1697584D01*
G01X1697736Y2882595D01*
G01X1697888Y2884068D01*
G01X1698041Y2886507D01*
G01X1698346Y2889250D01*
G01X1698650Y2891079D01*
G01X1699260Y2894076D01*
G01X1699565Y2895448D01*
G01X1700022Y2897276D01*
G01X1701190Y2900934D01*
G01X1701800Y2902255D01*
G01X1703019Y2904693D01*
G01X1703781Y2905912D01*
G01X1704543Y2906979D01*
G01X1705000Y2907741D01*
G01X1705610Y2908503D01*
G01X1707134Y2909976D01*
G01X1707896Y2910586D01*
G01X1709979Y2912110D01*
G01X1711046Y2912720D01*
G01X1712417Y2913329D01*
G01X1713941Y2913939D01*
G01X1715313Y2914396D01*
G01X1718615Y2915006D01*
G01X1721663Y2915158D01*
G01X1725625Y2915006D01*
G01X1727708Y2914701D01*
G01X1728927Y2914396D01*
G01X1730299Y2914091D01*
G01X1731823Y2913634D01*
G01X1733042Y2913177D01*
G01X1733956Y2912720D01*
G01X1735023Y2912110D01*
G01X1736496Y2911196D01*
G01X1737716Y2910281D01*
G01X1740306Y2907741D01*
G01X1741221Y2906522D01*
G01X1741830Y2905760D01*
G01X1742440Y2904693D01*
G01X1743964Y2901645D01*
G01X1744523Y2900020D01*
G01X1745132Y2898191D01*
G01X1745742Y2896210D01*
G01X1746199Y2894686D01*
G01X1746809Y2891384D01*
G01X1747114Y2889250D01*
G01X1747418Y2886507D01*
G01X1747723Y2881376D01*
G01X1747876Y2877871D01*
G01X1747723Y2874416D01*
G01X1747571Y2871978D01*
G01X1747418Y2868930D01*
G01X1746809Y2864104D01*
G01X1746504Y2862580D01*
G01X1746352Y2861513D01*
G01X1746047Y2859837D01*
G01X1745590Y2858313D01*
G01X1745285Y2857144D01*
G01X1743964Y2853182D01*
G01X1742745Y2850744D01*
G01X1742135Y2849677D01*
G01X1741221Y2848356D01*
G01X1740306Y2847137D01*
G01X1739087Y2845613D01*
G01X1738325Y2844851D01*
G01X1737106Y2843936D01*
G01X1734871Y2842412D01*
G01X1733804Y2841803D01*
G01X1732280Y2841193D01*
G01X1762404D01*
G01Y2851506D01*
G01X1763166Y2851963D01*
G01X1772717Y2860142D01*
G01X1774546Y2861666D01*
G01X1775612Y2862732D01*
G01X1776832Y2863647D01*
G01X1779067Y2865933D01*
G01X1780591Y2867101D01*
G01X1788465Y2875026D01*
G01X1789379Y2876194D01*
G01X1790903Y2877718D01*
G01X1791513Y2878480D01*
G01X1792427Y2879547D01*
G01X1793342Y2880766D01*
G01X1793951Y2881528D01*
G01X1794713Y2882595D01*
G01X1795628Y2884068D01*
G01X1796390Y2885288D01*
G01X1796948Y2886659D01*
G01X1798015Y2889860D01*
G01X1798320Y2891993D01*
G01X1798472Y2893619D01*
G01X1798320Y2895905D01*
G01X1798015Y2897734D01*
G01X1797558Y2899410D01*
G01X1796796Y2901086D01*
G01X1796085Y2902102D01*
G01X1795475Y2902864D01*
G01X1794408Y2903931D01*
G01X1793037Y2904846D01*
G01X1791818Y2905455D01*
G01X1790141Y2906065D01*
G01X1788617Y2906522D01*
G01X1787296Y2906674D01*
G01X1785315Y2906827D01*
G01X1783791D01*
G01X1782115Y2906674D01*
G01X1780134Y2906522D01*
G01X1777136Y2905912D01*
G01X1775308Y2905455D01*
G01X1773326Y2904846D01*
G01X1771650Y2904236D01*
G01X1768958Y2903017D01*
G01X1767738Y2902407D01*
G01X1766672Y2901798D01*
G01X1765757Y2901239D01*
G01X1764843Y2900782D01*
G01X1764233Y2900629D01*
G01Y2910891D01*
G01X1765148Y2911196D01*
G01X1768196Y2912415D01*
G01X1769567Y2912872D01*
G01X1772564Y2913634D01*
G01X1774088Y2914091D01*
G01X1777441Y2914701D01*
G01X1779524Y2915006D01*
G01X1783486Y2915158D01*
G01X1788312Y2915006D01*
G01X1790446Y2914701D01*
G01X1791970Y2914396D01*
G01X1794408Y2913786D01*
G01X1795780Y2913329D01*
G01X1798472Y2912110D01*
G01X1799844Y2911348D01*
G01X1800911Y2910586D01*
G01X1801673Y2910129D01*
G01X1802435Y2909570D01*
G01X1803197Y2908808D01*
G01X1804416Y2907284D01*
G01X1805280Y2906217D01*
G01X1806042Y2904998D01*
G01X1806651Y2903779D01*
G01X1807261Y2902255D01*
G01X1807718Y2901086D01*
G01X1808023Y2899410D01*
G01X1808328Y2896819D01*
G01Y2894990D01*
G01X1808175Y2893466D01*
G01X1808023Y2891384D01*
G01X1807718Y2889860D01*
G01X1807566Y2888793D01*
G01X1807261Y2887574D01*
G01X1806346Y2885135D01*
G01X1805737Y2883814D01*
G01X1805026Y2882290D01*
G01X1804111Y2880766D01*
G01X1803197Y2879395D01*
G01X1802587Y2878328D01*
G01X1800758Y2876042D01*
G01X1799234Y2874264D01*
G01X1796948Y2871978D01*
G01X1795780Y2870454D01*
G01X1794256Y2868930D01*
G01X1792122Y2867101D01*
G01X1788008Y2863037D01*
G01X1786839Y2862123D01*
G01X1786230Y2861513D01*
G01X1821840D01*
G01Y2867254D01*
G01X1821942Y2871673D01*
G01X1822298Y2873350D01*
G01X1823314Y2874416D01*
G01X1824228Y2875585D01*
G01X1824990Y2876347D01*
G01X1855927Y2912415D01*
G01X1856689Y2913177D01*
G01X1858010Y2913532D01*
G01X1861515Y2913634D01*
G01X1866036D01*
G01Y2876804D01*
G01X1924558D01*
G01X1924710Y2879242D01*
G01X1925015Y2885288D01*
G01X1925168Y2886354D01*
G01X1925320Y2888031D01*
G01X1925625Y2890164D01*
G01X1925930Y2891993D01*
G01X1926234Y2893466D01*
G01X1926539Y2894686D01*
G01X1927250Y2897886D01*
G01X1927860Y2899715D01*
G01X1928470Y2901340D01*
G01X1930451Y2905303D01*
G01X1931213Y2906370D01*
G01X1931670Y2907132D01*
G01X1932280Y2907894D01*
G01X1934566Y2910129D01*
G01X1936039Y2911348D01*
G01X1937106Y2912110D01*
G01X1938630Y2912872D01*
G01X1940306Y2913634D01*
G01X1942287Y2914244D01*
G01X1943811Y2914701D01*
G01X1945894Y2915006D01*
G01X1948942Y2915158D01*
G01X1952600Y2915006D01*
G01X1954682Y2914701D01*
G01X1956206Y2914396D01*
G01X1957426Y2914091D01*
G01X1958950Y2913634D01*
G01X1960474Y2913024D01*
G01X1961693Y2912415D01*
G01X1962709Y2911805D01*
G01X1963623Y2911196D01*
G01X1965909Y2909418D01*
G01X1966976Y2908351D01*
G01X1967890Y2907132D01*
G01X1968652Y2906065D01*
G01X1969414Y2904846D01*
G01X1970024Y2903779D01*
G01X1970583Y2902560D01*
G01X1971192Y2901239D01*
G01X1971802Y2899715D01*
G01X1972869Y2896514D01*
G01X1973478Y2893771D01*
G01X1974088Y2890164D01*
G01X1974393Y2887726D01*
G01X1974698Y2884068D01*
G01X1974850Y2877871D01*
G01X1974698Y2871673D01*
G01X1974545Y2870149D01*
G01X1974393Y2867711D01*
G01X1974088Y2865323D01*
G01X1973478Y2861666D01*
G01X1973021Y2859532D01*
G01X1972564Y2858008D01*
G01X1972259Y2856687D01*
G01X1971802Y2855163D01*
G01X1971192Y2853792D01*
G01X1970583Y2852268D01*
G01X1969872Y2850744D01*
G01X1968957Y2849220D01*
G01X1967433Y2847137D01*
G01X1966519Y2846070D01*
G01X1964995Y2844546D01*
G01X1964182Y2843936D01*
G01X1989684D01*
G01Y2854249D01*
G01X1990293Y2854096D01*
G01X1991208Y2853639D01*
G01X1992274Y2853030D01*
G01X1994713Y2851810D01*
G01X1996084Y2851201D01*
G01X1999691Y2849829D01*
G01X2001215Y2849372D01*
G01X2002587Y2848966D01*
G01X2005889Y2848356D01*
G01X2008937Y2848051D01*
G01X2010156Y2847899D01*
G01X2012594Y2848204D01*
G01X2014372Y2848356D01*
G01X2016506Y2848813D01*
G01X2018030Y2849220D01*
G01X2019402Y2849677D01*
G01X2021078Y2850439D01*
G01X2022145Y2851201D01*
G01X2022856Y2851658D01*
G01X2023466Y2852268D01*
G01X2024075Y2853030D01*
G01X2024837Y2853792D01*
G01X2025447Y2854554D01*
G01X2026056Y2855620D01*
G01X2026666Y2856840D01*
G01X2027123Y2858160D01*
G01X2027428Y2859532D01*
G01X2027580Y2862580D01*
G01X2027428Y2865628D01*
G01X2027123Y2867254D01*
G01X2026666Y2868930D01*
G01X2026056Y2870149D01*
G01X2025447Y2871216D01*
G01X2024837Y2872130D01*
G01X2024075Y2873045D01*
G01X2023008Y2873807D01*
G01X2021840Y2874569D01*
G01X2020621Y2875178D01*
G01X2019249Y2875585D01*
G01X2018030Y2875890D01*
G01X2015896Y2876194D01*
G01X2010918Y2876347D01*
G01X2006346D01*
G01Y2879700D01*
G01X2006498Y2883814D01*
G01X2006651Y2884526D01*
G01X2009242D01*
G01X2012290Y2884678D01*
G01X2015439Y2885135D01*
G01X2016963Y2885440D01*
G01X2018487Y2886050D01*
G01X2019859Y2886659D01*
G01X2021383Y2887421D01*
G01X2022450Y2888183D01*
G01X2023161Y2888793D01*
G01X2023923Y2889555D01*
G01X2024685Y2890622D01*
G01X2025447Y2892146D01*
G01X2025904Y2893466D01*
G01X2026056Y2895905D01*
G01X2025904Y2898648D01*
G01X2025447Y2900324D01*
G01X2024532Y2901950D01*
G01X2023618Y2903169D01*
G01X2022145Y2904388D01*
G01X2021078Y2905150D01*
G01X2019706Y2905760D01*
G01X2018182Y2906217D01*
G01X2016811Y2906522D01*
G01X2015439Y2906674D01*
G01X2013204Y2906827D01*
G01X2011375D01*
G01X2008022Y2906522D01*
G01X2006956Y2906370D01*
G01X2005279Y2906065D01*
G01X2003806Y2905608D01*
G01X2002587Y2905303D01*
G01X1999844Y2904388D01*
G01X1998624Y2903931D01*
G01X1995018Y2902102D01*
G01X1993646Y2901340D01*
G01X1992427Y2900782D01*
G01X1991817Y2900629D01*
G01Y2904998D01*
G01X1991970Y2910129D01*
G01X1992274Y2910789D01*
G01X1992884Y2911196D01*
G01X1994408Y2911805D01*
G01X1996084Y2912415D01*
G01X1998015Y2913024D01*
G01X1999539Y2913482D01*
G01X2001977Y2914091D01*
G01X2005025Y2914701D01*
G01X2007413Y2915006D01*
G01X2011680Y2915158D01*
G01X2016811Y2915006D01*
G01X2018944Y2914701D01*
G01X2020468Y2914396D01*
G01X2022856Y2913786D01*
G01X2024228Y2913329D01*
G01X2025752Y2912720D01*
G01X2027123Y2912110D01*
G01X2028190Y2911500D01*
G01X2029104Y2910891D01*
G01X2029866Y2910434D01*
G01X2030628Y2909875D01*
G01X2032406Y2908046D01*
G01X2033321Y2906827D01*
G01X2033930Y2906065D01*
G01X2034540Y2904846D01*
G01X2035150Y2903322D01*
G01X2035607Y2901645D01*
G01X2035912Y2900172D01*
G01X2036064Y2898648D01*
G01X2035912Y2897124D01*
G01X2035759Y2895905D01*
G01X2035454Y2894076D01*
G01X2034845Y2892298D01*
G01X2034235Y2891079D01*
G01X2033778Y2890012D01*
G01X2033168Y2889098D01*
G01X2031644Y2887269D01*
G01X2029866Y2885440D01*
G01X2028342Y2884373D01*
G01X2027276Y2883662D01*
G01X2026056Y2883052D01*
G01X2024685Y2882443D01*
G01X2023161Y2881986D01*
G01X2022348Y2881681D01*
G01X2021992Y2881224D01*
G01X2022043Y2880716D01*
G01X2022602Y2880462D01*
G01X2023770Y2880157D01*
G01X2025142Y2879700D01*
G01X2026818Y2879090D01*
G01X2029257Y2877871D01*
G01X2030781Y2876956D01*
G01X2031949Y2876042D01*
G01X2033473Y2874569D01*
G01X2034388Y2873502D01*
G01X2035302Y2872130D01*
G01X2036064Y2870759D01*
G01X2036674Y2869082D01*
G01X2037131Y2867711D01*
G01X2037436Y2865628D01*
G01X2037588Y2863494D01*
G01X2037436Y2860751D01*
G01X2037131Y2858618D01*
G01X2036674Y2856535D01*
G01X2036166Y2854858D01*
G01X2057552D01*
G01X2069084D01*
G01Y2841193D01*
G01X2095144D01*
G01Y2848508D01*
G01X2110283D01*
G01Y2897276D01*
G01X2095144D01*
G01Y2903931D01*
G01X2096364D01*
G01X2098954Y2904084D01*
G01X2101647Y2904388D01*
G01X2104085Y2904846D01*
G01X2106066Y2905455D01*
G01X2107286Y2906065D01*
G01X2108200Y2906674D01*
G01X2109114Y2907436D01*
G01X2109826Y2908198D01*
G01X2110740Y2909265D01*
G01X2111502Y2910891D01*
G01X2111959Y2912872D01*
G01X2112112Y2913939D01*
G01X2119376D01*
G01Y2876652D01*
G01X2151837D01*
G01X2151990Y2883205D01*
G01X2152142Y2884526D01*
G01X2152294Y2886812D01*
G01X2152599Y2889555D01*
G01X2152904Y2891384D01*
G01X2153768Y2895905D01*
G01X2154225Y2897581D01*
G01X2155139Y2900324D01*
G01X2156358Y2903017D01*
G01X2156968Y2904236D01*
G01X2157578Y2905303D01*
G01X2158187Y2906217D01*
G01X2158797Y2906979D01*
G01X2159406Y2907894D01*
G01X2160168Y2908808D01*
G01X2160930Y2909570D01*
G01X2162404Y2910738D01*
G01X2163318Y2911500D01*
G01X2164537Y2912262D01*
G01X2165909Y2913024D01*
G01X2167433Y2913634D01*
G01X2169262Y2914244D01*
G01X2170735Y2914701D01*
G01X2172868Y2915006D01*
G01X2176374Y2915158D01*
G01X2179828Y2915006D01*
G01X2181047Y2914853D01*
G01X2182876Y2914548D01*
G01X2184400Y2914091D01*
G01X2185619Y2913786D01*
G01X2186838Y2913329D01*
G01X2189531Y2911958D01*
G01X2190902Y2911043D01*
G01X2191969Y2910281D01*
G01X2194560Y2907741D01*
G01X2195474Y2906522D01*
G01X2196948Y2904084D01*
G01X2197557Y2902864D01*
G01X2198167Y2901493D01*
G01X2199081Y2899105D01*
G01X2199538Y2897734D01*
G01X2199996Y2895905D01*
G01X2200453Y2894381D01*
G01X2201062Y2891079D01*
G01X2201367Y2888945D01*
G01X2201672Y2885897D01*
G01X2201977Y2879242D01*
G01X2202129Y2877871D01*
G01X2201977Y2876499D01*
G01X2201672Y2869540D01*
G01X2201520Y2868473D01*
G01X2201367Y2866796D01*
G01X2201062Y2864409D01*
G01X2200758Y2862580D01*
G01X2200453Y2861056D01*
G01X2199996Y2858922D01*
G01X2199538Y2857449D01*
G01X2199234Y2856230D01*
G01X2198776Y2854858D01*
G01X2198167Y2853487D01*
G01X2197557Y2851963D01*
G01X2196948Y2850744D01*
G01X2196389Y2849677D01*
G01X2195779Y2848813D01*
G01X2195322Y2848051D01*
G01X2194712Y2847289D01*
G01X2191664Y2844241D01*
G01X2190902Y2843632D01*
G01X2189074Y2842412D01*
G01X2188159Y2841955D01*
G01X2186076Y2841041D01*
G01X2184552Y2840584D01*
G01X2183181Y2840177D01*
G01X2181047Y2839872D01*
G01X2176678Y2839720D01*
G01X2171497Y2840025D01*
G01X2169262Y2840584D01*
G01X2167433Y2841193D01*
G01X2165909Y2841803D01*
G01X2164385Y2842565D01*
G01X2163013Y2843479D01*
G01X2161946Y2844241D01*
G01X2160473Y2845460D01*
G01X2159711Y2846222D01*
G01X2159102Y2846984D01*
G01X2158644Y2847746D01*
G01X2158035Y2848508D01*
G01X2157273Y2849524D01*
G01X2156663Y2850591D01*
G01X2156054Y2851810D01*
G01X2155444Y2853182D01*
G01X2154987Y2854401D01*
G01X2154072Y2857144D01*
G01X2153615Y2858922D01*
G01X2153158Y2860446D01*
G01X2152599Y2864104D01*
G01X2152294Y2866492D01*
G01X2151990Y2870149D01*
G01X2151837Y2876652D01*
G01X2119376D01*
G01Y2848508D01*
G01X2134260D01*
G01Y2841193D01*
G01X2095144D01*
G01X2069084D01*
G01X2057552D01*
G01Y2854858D01*
G01X2036166D01*
G01X2036064Y2854554D01*
G01X2035454Y2853182D01*
G01X2034845Y2851963D01*
G01X2034083Y2850591D01*
G01X2033321Y2849372D01*
G01X2032559Y2848508D01*
G01X2030781Y2846375D01*
G01X2030019Y2845765D01*
G01X2028952Y2844851D01*
G01X2027428Y2843784D01*
G01X2026209Y2843022D01*
G01X2024990Y2842412D01*
G01X2023618Y2841803D01*
G01X2020926Y2840888D01*
G01X2019402Y2840431D01*
G01X2018030Y2840177D01*
G01X2015896Y2839872D01*
G01X2010766Y2839720D01*
G01X2005736Y2839872D01*
G01X2004111Y2840177D01*
G01X2002282Y2840431D01*
G01X2000758Y2840736D01*
G01X1998624Y2841193D01*
G01X1997100Y2841650D01*
G01X1995932Y2841955D01*
G01X1990446Y2843784D01*
G01X1989684Y2843936D01*
G01X1964182D01*
G01X1963776Y2843632D01*
G01X1962404Y2842717D01*
G01X1961388Y2842108D01*
G01X1960169Y2841498D01*
G01X1958492Y2840888D01*
G01X1957121Y2840431D01*
G01X1954073Y2839872D01*
G01X1949704Y2839720D01*
G01X1945284Y2839872D01*
G01X1941678Y2840736D01*
G01X1940306Y2841193D01*
G01X1939087Y2841650D01*
G01X1936648Y2842870D01*
G01X1935734Y2843479D01*
G01X1933651Y2845308D01*
G01X1932127Y2846832D01*
G01X1931213Y2848051D01*
G01X1930298Y2849372D01*
G01X1929536Y2850744D01*
G01X1928774Y2852268D01*
G01X1928165Y2853639D01*
G01X1926844Y2857754D01*
G01X1926387Y2859532D01*
G01X1925930Y2861666D01*
G01X1925625Y2863190D01*
G01X1925320Y2865628D01*
G01X1925015Y2868320D01*
G01X1924710Y2874416D01*
G01X1924558Y2876804D01*
G01X1866036D01*
G01Y2869387D01*
G01X1876654D01*
G01Y2861513D01*
G01X1866036D01*
G01Y2854858D01*
G01X1893926D01*
G01X1905457D01*
G01Y2841193D01*
G01X1893926D01*
G01Y2854858D01*
G01X1866036D01*
G01Y2841193D01*
G01X1856689D01*
G01Y2861513D01*
G01X1821840D01*
G01X1786230D01*
G01X1785315Y2860599D01*
G01X1783791Y2859380D01*
G01X1783029Y2858618D01*
G01X1774546Y2851353D01*
G01X1773631Y2850591D01*
G01X1772869Y2849829D01*
G01X1777594Y2849524D01*
G01X1792122Y2849372D01*
G01X1811528D01*
G01Y2841193D01*
G01X1762404D01*
G01X1732280D01*
G01X1730451Y2840584D01*
G01X1728927Y2840177D01*
G01X1726844Y2839872D01*
G01X1722425Y2839720D01*
G01X1718056Y2839872D01*
G01X1717142Y2840177D01*
G01X1715618Y2840431D01*
G01X1713941Y2840888D01*
G01X1712417Y2841498D01*
G01X1710741Y2842260D01*
G01X1709522Y2843022D01*
G01X1708658Y2843479D01*
G01X1707896Y2844089D01*
G01X1704848Y2847137D01*
G01X1703934Y2848356D01*
G01X1703019Y2849677D01*
G01X1702410Y2850744D01*
G01X1701800Y2851963D01*
G01X1701190Y2853334D01*
G01X1700632Y2854858D01*
G01X1699565Y2858008D01*
G01X1698955Y2860751D01*
G01X1698346Y2864409D01*
G01X1698041Y2867101D01*
G01X1697736Y2870759D01*
G01X1697584Y2876652D01*
G01X1674063D01*
G01X1672895Y2875178D01*
G01X1671828Y2874112D01*
G01X1670914Y2872892D01*
G01X1664106Y2866085D01*
G01X1662582Y2864866D01*
G01X1660296Y2862580D01*
G01X1658163Y2860751D01*
G01X1657147Y2859684D01*
G01X1655928Y2858770D01*
G01X1655166Y2858008D01*
G01X1648765Y2852572D01*
G01X1646987Y2851048D01*
G01X1645615Y2849677D01*
G01X1650340Y2849474D01*
G01X1664868Y2849372D01*
G01X1684223D01*
G01Y2841193D01*
G01X1635150D01*
G01X1615440D01*
G01Y2821838D01*
G01X1590294D01*
G01Y2828798D01*
G01X1606956D01*
G01Y2909976D01*
G01X1590294D01*
G01Y2916987D01*
G01X1560932D01*
G01Y2914701D01*
G01X1560627Y2911500D01*
G01X1554328Y2911043D01*
G01X1536040Y2910891D01*
G01X1511046Y2910738D01*
G01X1510284Y2910586D01*
G01Y2896972D01*
G01X1510436Y2882595D01*
G01X1510589Y2881833D01*
G01X1535887D01*
G01X1561795Y2881528D01*
G01X1562252Y2880817D01*
G01X1562405Y2879242D01*
G01X1562252Y2876194D01*
G01X1562100Y2875178D01*
G01X1535735D01*
G01Y2853334D01*
G01X1554988D01*
G01X1575003Y2853182D01*
G01X1575765Y2853030D01*
G01Y2850744D01*
G01X1575613Y2847746D01*
G01X1575460Y2846984D01*
G01X1488186D01*
G01X1465478D01*
G01Y2832405D01*
G01X1461821D01*
G01X1459078Y2832557D01*
G01X1458011Y2832862D01*
G01X1457858Y2878785D01*
G01X1425753D01*
G01X1425143Y2878023D01*
G01X1422705Y2875026D01*
G01X1421841Y2873807D01*
G01X1415440Y2867406D01*
G01X1413916Y2866238D01*
G01X1412900Y2865171D01*
G01X1411376Y2863952D01*
G01X1407719Y2861208D01*
G01X1405585Y2859684D01*
G01X1404722Y2859075D01*
G01X1403502Y2858313D01*
G01X1402131Y2857449D01*
G01X1400912Y2856687D01*
G01X1399997Y2856078D01*
G01X1398930Y2855468D01*
G01X1397406Y2854706D01*
G01X1396746Y2854452D01*
G01X1396238Y2854706D01*
G01X1395476Y2855620D01*
G01X1394257Y2857144D01*
G01X1391971Y2859380D01*
G01X1391717Y2859735D01*
G01X1350010D01*
G01X1349858Y2850134D01*
G01X1349705Y2849372D01*
G01X1346962D01*
G01X1343508Y2849524D01*
G01X1342746Y2849677D01*
G01Y2859837D01*
G01X1342593Y2870759D01*
G01X1342441Y2871521D01*
G01X1324864D01*
G01Y2861208D01*
G01X1324712Y2850134D01*
G01X1324559Y2849372D01*
G01X1321054D01*
G01X1317447Y2849677D01*
G01X1317295Y2859684D01*
G01X1317447Y2870454D01*
G01X1317600Y2871521D01*
G01X1303325D01*
G01X1292504Y2871622D01*
G01X1288491Y2871978D01*
G01X1288034Y2872791D01*
G01X1287882Y2874264D01*
G01X1256690D01*
G01Y2848204D01*
G01X1301801D01*
G01X1302106Y2861513D01*
G01X1302969Y2861970D01*
G01X1305001Y2862123D01*
G01X1308354Y2861970D01*
G01X1309116Y2861818D01*
G01Y2852115D01*
G01X1309370Y2841955D01*
G01X1316330Y2841650D01*
G01X1336497Y2841498D01*
G01X1363320D01*
G01Y2838653D01*
G01X1363015Y2835300D01*
G01X1355293Y2834945D01*
G01X1332738Y2834843D01*
G01X1302258Y2835148D01*
G01X1301953Y2838552D01*
G01X1301801Y2848204D01*
G01X1256690D01*
G01Y2828798D01*
G01X1273353D01*
G01Y2821838D01*
G01X1248207D01*
G01Y2916987D01*
G01X771195D01*
G01Y2845460D01*
G01X777596D01*
G01Y2851353D01*
G01X777900Y2857449D01*
G01X778764Y2857144D01*
G01X779831Y2856382D01*
G01X780593Y2855773D01*
G01X781507Y2855163D01*
G01X783946Y2853639D01*
G01X785012Y2853030D01*
G01X786232Y2852420D01*
G01X787552Y2851810D01*
G01X790600Y2850591D01*
G01X791972Y2850134D01*
G01X793648Y2849677D01*
G01X795020Y2849220D01*
G01X797712Y2848661D01*
G01X799846Y2848356D01*
G01X804266Y2848204D01*
G01X808939Y2848356D01*
G01X810768Y2848661D01*
G01X812292Y2848966D01*
G01X813613Y2849220D01*
G01X815137Y2849677D01*
G01X816508Y2850286D01*
G01X818032Y2851048D01*
G01X819099Y2851810D01*
G01X819861Y2852420D01*
G01X820928Y2853334D01*
G01X821842Y2854401D01*
G01X822401Y2855316D01*
G01X823011Y2856687D01*
G01X823468Y2858008D01*
G01X823620Y2859684D01*
G01X823468Y2861970D01*
G01X823163Y2863494D01*
G01X822858Y2864714D01*
G01X822401Y2865933D01*
G01X821842Y2866796D01*
G01X821233Y2867558D01*
G01X820623Y2868168D01*
G01X818794Y2869387D01*
G01X817575Y2869997D01*
G01X816051Y2870606D01*
G01X814527Y2871064D01*
G01X812597Y2871521D01*
G01X811073Y2871978D01*
G01X809549Y2872283D01*
G01X802284Y2873502D01*
G01X800760Y2873807D01*
G01X798932Y2874112D01*
G01X796493Y2874569D01*
G01X795020Y2875026D01*
G01X793648Y2875280D01*
G01X792124Y2875737D01*
G01X790905Y2876194D01*
G01X789838Y2876652D01*
G01X787400Y2877871D01*
G01X786384Y2878480D01*
G01X785470Y2879090D01*
G01X783184Y2880919D01*
G01X782422Y2881681D01*
G01X781507Y2882900D01*
G01X780593Y2884221D01*
G01X779983Y2885288D01*
G01X779374Y2886507D01*
G01X778916Y2887726D01*
G01X778358Y2890164D01*
G01X778205Y2893009D01*
G01X778358Y2896514D01*
G01X778612Y2898343D01*
G01X779069Y2900020D01*
G01X779678Y2901645D01*
G01X780440Y2903169D01*
G01X781355Y2904541D01*
G01X782422Y2905912D01*
G01X783336Y2907132D01*
G01X784860Y2908351D01*
G01X785622Y2909113D01*
G01X786689Y2909875D01*
G01X787857Y2910586D01*
G01X788772Y2911196D01*
G01X789838Y2911805D01*
G01X791362Y2912415D01*
G01X792734Y2913024D01*
G01X795782Y2913939D01*
G01X797560Y2914396D01*
G01X799236Y2914701D01*
G01X802894Y2915006D01*
G01X805129Y2915158D01*
G01X807415Y2915006D01*
G01X809396Y2914853D01*
G01X811987Y2914701D01*
G01X814375Y2914396D01*
G01X816204Y2914091D01*
G01X820776Y2913177D01*
G01X840130D01*
G01X841248Y2913532D01*
G01X844855Y2913634D01*
G01X850138Y2913482D01*
G01X851052Y2912567D01*
G01X852576Y2910129D01*
G01X854405Y2907132D01*
G01X855929Y2904693D01*
G01X857707Y2901645D01*
G01X859231Y2899258D01*
G01X861060Y2896210D01*
G01X862584Y2893771D01*
G01X864413Y2890774D01*
G01X865886Y2888336D01*
G01X868629Y2883814D01*
G01X869391Y2882748D01*
G01X870052Y2881427D01*
G01X870306Y2881376D01*
G01X871068Y2882290D01*
G01X872592Y2884678D01*
G01X873506Y2886202D01*
G01X874979Y2888640D01*
G01X875894Y2890164D01*
G01X878942Y2894990D01*
G01X879856Y2896514D01*
G01X881380Y2898953D01*
G01X882294Y2900477D01*
G01X883768Y2902864D01*
G01X884682Y2904388D01*
G01X887730Y2909265D01*
G01X888644Y2910738D01*
G01X889406Y2911958D01*
G01X890016Y2913024D01*
G01X891489Y2913482D01*
G01X895299Y2913634D01*
G01X900328Y2913482D01*
G01X899871Y2912720D01*
G01X889254Y2895752D01*
G01X888340Y2894381D01*
G01X876198Y2875026D01*
G01X875436Y2873959D01*
G01X875132Y2857449D01*
G01Y2851506D01*
G01X907593D01*
G01X907694Y2856027D01*
G01X908050Y2857449D01*
G01X908964Y2856992D01*
G01X910133Y2856078D01*
G01X911657Y2855011D01*
G01X913028Y2854096D01*
G01X914400Y2853334D01*
G01X916838Y2852115D01*
G01X918159Y2851506D01*
G01X919683Y2850896D01*
G01X924712Y2849220D01*
G01X927710Y2848661D01*
G01X929843Y2848356D01*
G01X933958Y2848204D01*
G01X938632Y2848356D01*
G01X940765Y2848661D01*
G01X942289Y2848966D01*
G01X943508Y2849220D01*
G01X944829Y2849677D01*
G01X946353Y2850286D01*
G01X947877Y2851048D01*
G01X949096Y2851810D01*
G01X950011Y2852572D01*
G01X951535Y2854096D01*
G01X952144Y2854858D01*
G01X952551Y2855773D01*
G01X953008Y2856992D01*
G01X953313Y2858313D01*
G01X953465Y2859532D01*
G01Y2860751D01*
G01X953160Y2862885D01*
G01X952703Y2865018D01*
G01X952144Y2866238D01*
G01X951535Y2867101D01*
G01X950468Y2868168D01*
G01X949096Y2869082D01*
G01X948030Y2869692D01*
G01X946963Y2870149D01*
G01X945744Y2870606D01*
G01X944372Y2871064D01*
G01X942594Y2871521D01*
G01X941070Y2871978D01*
G01X937412Y2872588D01*
G01X935888Y2872892D01*
G01X933806Y2873197D01*
G01X931977Y2873502D01*
G01X927405Y2874416D01*
G01X926236Y2874721D01*
G01X924712Y2875026D01*
G01X923036Y2875432D01*
G01X921664Y2875890D01*
G01X920445Y2876347D01*
G01X919378Y2876804D01*
G01X918007Y2877414D01*
G01X916534Y2878328D01*
G01X915162Y2879242D01*
G01X914095Y2880004D01*
G01X911809Y2882290D01*
G01X911200Y2883052D01*
G01X910590Y2883916D01*
G01X909980Y2884983D01*
G01X909371Y2886202D01*
G01X908812Y2888031D01*
G01X908355Y2889555D01*
G01X908050Y2891688D01*
G01X907898Y2893314D01*
G01X908050Y2894990D01*
G01X908355Y2897429D01*
G01X908660Y2898800D01*
G01X909066Y2900324D01*
G01X909676Y2901798D01*
G01X910742Y2903931D01*
G01X911352Y2904846D01*
G01X913181Y2906979D01*
G01X913943Y2907741D01*
G01X915467Y2908960D01*
G01X916534Y2909875D01*
G01X917600Y2910586D01*
G01X918616Y2911196D01*
G01X921055Y2912415D01*
G01X922731Y2913024D01*
G01X925932Y2914091D01*
G01X929234Y2914701D01*
G01X932891Y2915006D01*
G01X935025Y2915158D01*
G01X939241Y2914853D01*
G01X941984Y2914701D01*
G01X946201Y2914091D01*
G01X947725Y2913786D01*
G01X948436Y2913634D01*
G01X979373D01*
G01X989076D01*
G01Y2894990D01*
G01X989228Y2881071D01*
G01X989533Y2876499D01*
G01X990295Y2877109D01*
G01X991819Y2878633D01*
G01X993038Y2880157D01*
G01X996086Y2883205D01*
G01X997255Y2884678D01*
G01X999541Y2886964D01*
G01X1000760Y2888488D01*
G01X1003808Y2891536D01*
G01X1005586Y2893619D01*
G01X1008177Y2896210D01*
G01X1009091Y2897429D01*
G01X1012139Y2900477D01*
G01X1013358Y2901950D01*
G01X1016356Y2904998D01*
G01X1017575Y2906522D01*
G01X1019861Y2908808D01*
G01X1021690Y2910891D01*
G01X1023925Y2913177D01*
G01X1025550Y2913532D01*
G01X1029868Y2913634D01*
G01X1045159D01*
G01X1073963D01*
G01X1090625D01*
G01X1102868D01*
G01X1115619Y2913482D01*
G01X1118921Y2913177D01*
G01X1119988Y2913024D01*
G01X1121359Y2912872D01*
G01X1124407Y2912262D01*
G01X1125626Y2911958D01*
G01X1127100Y2911653D01*
G01X1128776Y2911196D01*
G01X1131214Y2910281D01*
G01X1132586Y2909722D01*
G01X1135024Y2908503D01*
G01X1136345Y2907741D01*
G01X1137412Y2906979D01*
G01X1138174Y2906370D01*
G01X1139088Y2905760D01*
G01X1140003Y2904998D01*
G01X1141070Y2903931D01*
G01X1142289Y2903017D01*
G01X1143508Y2901493D01*
G01X1144219Y2900782D01*
G01X1145134Y2899562D01*
G01X1146200Y2898038D01*
G01X1147115Y2896514D01*
G01X1147877Y2895295D01*
G01X1148486Y2894076D01*
G01X1149096Y2892552D01*
G01X1149706Y2890926D01*
G01X1150772Y2887726D01*
G01X1151382Y2884373D01*
G01X1151687Y2881681D01*
G01X1151839Y2878176D01*
G01X1151788Y2876804D01*
G01X1163320D01*
G01X1163472Y2880157D01*
G01X1163777Y2883510D01*
G01X1164082Y2885897D01*
G01X1164387Y2887574D01*
G01X1164844Y2889860D01*
G01X1165454Y2891993D01*
G01X1166063Y2893924D01*
G01X1166673Y2895448D01*
G01X1167282Y2896819D01*
G01X1169111Y2900477D01*
G01X1169873Y2901645D01*
G01X1170584Y2902712D01*
G01X1171042Y2903474D01*
G01X1172870Y2905760D01*
G01X1174699Y2907589D01*
G01X1175918Y2908503D01*
G01X1176680Y2909113D01*
G01X1177747Y2909875D01*
G01X1179220Y2910738D01*
G01X1180440Y2911500D01*
G01X1182573Y2912415D01*
G01X1183945Y2913024D01*
G01X1187145Y2914091D01*
G01X1190142Y2914701D01*
G01X1192276Y2915006D01*
G01X1196645Y2915158D01*
G01X1201064Y2915006D01*
G01X1203198Y2914701D01*
G01X1206195Y2914091D01*
G01X1207567Y2913786D01*
G01X1209091Y2913329D01*
G01X1210310Y2912872D01*
G01X1211377Y2912415D01*
G01X1212596Y2911805D01*
G01X1213917Y2911196D01*
G01X1215288Y2910434D01*
G01X1216508Y2909722D01*
G01X1218946Y2907894D01*
G01X1219708Y2907132D01*
G01X1220470Y2906522D01*
G01X1221537Y2905608D01*
G01X1222705Y2904084D01*
G01X1223620Y2902864D01*
G01X1224382Y2901798D01*
G01X1225144Y2900629D01*
G01X1225906Y2899258D01*
G01X1226668Y2898038D01*
G01X1227277Y2896667D01*
G01X1228496Y2893314D01*
G01X1229106Y2891384D01*
G01X1229563Y2889860D01*
G01X1230173Y2886812D01*
G01X1230478Y2884373D01*
G01X1230782Y2880462D01*
G01X1230935Y2877718D01*
G01X1230782Y2875026D01*
G01X1230478Y2871368D01*
G01X1230173Y2868930D01*
G01X1229868Y2867254D01*
G01X1229411Y2865018D01*
G01X1228954Y2863494D01*
G01X1228649Y2862275D01*
G01X1228192Y2860904D01*
G01X1227734Y2859684D01*
G01X1227277Y2858618D01*
G01X1225448Y2855011D01*
G01X1224686Y2853639D01*
G01X1224077Y2852572D01*
G01X1223467Y2851810D01*
G01X1221689Y2849677D01*
G01X1218641Y2846680D01*
G01X1217117Y2845460D01*
G01X1215898Y2844698D01*
G01X1214526Y2843784D01*
G01X1213206Y2843022D01*
G01X1211834Y2842412D01*
G01X1210310Y2841803D01*
G01X1207110Y2840736D01*
G01X1204417Y2840177D01*
G01X1201979Y2839872D01*
G01X1196950Y2839720D01*
G01X1191971Y2839872D01*
G01X1190752Y2840177D01*
G01X1187704Y2840736D01*
G01X1186536Y2841041D01*
G01X1183335Y2842108D01*
G01X1181964Y2842717D01*
G01X1179525Y2843936D01*
G01X1178509Y2844546D01*
G01X1177595Y2845156D01*
G01X1176833Y2845613D01*
G01X1176071Y2846222D01*
G01X1173937Y2848051D01*
G01X1172108Y2849829D01*
G01X1170889Y2851353D01*
G01X1169873Y2852877D01*
G01X1169111Y2853944D01*
G01X1168502Y2855011D01*
G01X1167282Y2857449D01*
G01X1166673Y2858770D01*
G01X1165758Y2861208D01*
G01X1165301Y2862580D01*
G01X1164844Y2864256D01*
G01X1164387Y2866238D01*
G01X1164082Y2867711D01*
G01X1163777Y2869844D01*
G01X1163472Y2873502D01*
G01X1163320Y2876804D01*
G01X1151788D01*
G01X1151687Y2874721D01*
G01X1151534Y2873654D01*
G01X1151382Y2871978D01*
G01X1150772Y2868320D01*
G01X1150315Y2866644D01*
G01X1149858Y2865171D01*
G01X1149401Y2863799D01*
G01X1148486Y2861666D01*
G01X1147115Y2858922D01*
G01X1146353Y2857754D01*
G01X1145743Y2856687D01*
G01X1145134Y2855773D01*
G01X1142136Y2851963D01*
G01X1139850Y2849677D01*
G01X1138631Y2848813D01*
G01X1137412Y2848051D01*
G01X1136650Y2847442D01*
G01X1135583Y2846680D01*
G01X1133500Y2845460D01*
G01X1130757Y2844241D01*
G01X1129081Y2843632D01*
G01X1127100Y2843022D01*
G01X1125626Y2842565D01*
G01X1122578Y2841955D01*
G01X1120140Y2841650D01*
G01X1117143Y2841346D01*
G01X1103630Y2841193D01*
G01X1090625D01*
G01Y2913634D01*
G01X1073963D01*
G01Y2906370D01*
G01X1064565D01*
G01Y2848508D01*
G01X1073963D01*
G01Y2841193D01*
G01X1045159D01*
G01Y2848508D01*
G01X1054862D01*
G01Y2906370D01*
G01X1050747D01*
G01X1045921Y2906522D01*
G01X1045159Y2906674D01*
G01Y2913634D01*
G01X1029868D01*
G01X1034034Y2913532D01*
G01X1035304Y2913177D01*
G01X1034694Y2912415D01*
G01X1030173Y2907894D01*
G01X1028954Y2906370D01*
G01X1024382Y2901798D01*
G01X1023163Y2900324D01*
G01X1018642Y2895752D01*
G01X1017422Y2894228D01*
G01X1012901Y2889707D01*
G01X1011682Y2888183D01*
G01X1007110Y2883662D01*
G01X1005586Y2881833D01*
G01X1004113Y2880309D01*
G01X1003808Y2879903D01*
G01Y2879395D01*
G01X1004418Y2878480D01*
G01X1005129Y2877718D01*
G01X1006348Y2876194D01*
G01X1007110Y2875432D01*
G01X1008939Y2873350D01*
G01X1009701Y2872588D01*
G01X1010920Y2871064D01*
G01X1011682Y2870302D01*
G01X1013460Y2868168D01*
G01X1014222Y2867406D01*
G01X1015441Y2865933D01*
G01X1016203Y2865171D01*
G01X1018032Y2863037D01*
G01X1018794Y2862275D01*
G01X1020013Y2860751D01*
G01X1020775Y2859989D01*
G01X1022553Y2857856D01*
G01X1023315Y2857144D01*
G01X1024534Y2855620D01*
G01X1025296Y2854858D01*
G01X1027125Y2852725D01*
G01X1027887Y2851963D01*
G01X1029106Y2850439D01*
G01X1029868Y2849677D01*
G01X1031646Y2847594D01*
G01X1032408Y2846832D01*
G01X1033628Y2845308D01*
G01X1034390Y2844546D01*
G01X1036218Y2842412D01*
G01X1036980Y2841650D01*
G01X1035660Y2841346D01*
G01X1031037Y2841193D01*
G01X1026312Y2841346D01*
G01X1024534Y2841650D01*
G01X1023010Y2843174D01*
G01X1021842Y2844698D01*
G01X1021080Y2845460D01*
G01X1019251Y2847594D01*
G01X1018184Y2848661D01*
G01X1017270Y2849829D01*
G01X1015746Y2851353D01*
G01X1014527Y2852877D01*
G01X1013765Y2853639D01*
G01X1011987Y2855773D01*
G01X1010920Y2856840D01*
G01X1010006Y2858008D01*
G01X1008482Y2859532D01*
G01X1007262Y2861056D01*
G01X1006500Y2861818D01*
G01X1004722Y2863952D01*
G01X1003656Y2865018D01*
G01X1002741Y2866238D01*
G01X1001217Y2867711D01*
G01X999998Y2869235D01*
G01X999236Y2869997D01*
G01X997407Y2872130D01*
G01X996645Y2872892D01*
G01X996086Y2873197D01*
G01X995324Y2872740D01*
G01X994105Y2871216D01*
G01X991057Y2868168D01*
G01X989533Y2866390D01*
G01X989228Y2863037D01*
G01X989076Y2853639D01*
G01Y2841193D01*
G01X979373D01*
G01Y2913634D01*
G01X948436D01*
G01X949096Y2913482D01*
G01X951078Y2913024D01*
G01X952551Y2912567D01*
G01X953770Y2912262D01*
G01X955446Y2911805D01*
G01X957275Y2911196D01*
G01X958799Y2910586D01*
G01X960018Y2910129D01*
G01X960476Y2908808D01*
G01X960628Y2904998D01*
G01X960476Y2899258D01*
G01X960222Y2898750D01*
G01X959866Y2898800D01*
G01X958952Y2899410D01*
G01X957885Y2900172D01*
G01X956666Y2900934D01*
G01X955751Y2901493D01*
G01X954684Y2902102D01*
G01X953465Y2902712D01*
G01X952144Y2903322D01*
G01X948792Y2904541D01*
G01X946810Y2905150D01*
G01X945286Y2905608D01*
G01X942289Y2906217D01*
G01X939851Y2906522D01*
G01X935584Y2906674D01*
G01X931367Y2906522D01*
G01X929691Y2906217D01*
G01X927557Y2905760D01*
G01X925779Y2905150D01*
G01X924560Y2904541D01*
G01X922426Y2903322D01*
G01X921512Y2902712D01*
G01X920293Y2901645D01*
G01X919378Y2900324D01*
G01X918769Y2899258D01*
G01X918312Y2898038D01*
G01X918007Y2896819D01*
G01X917854Y2895600D01*
G01X918007Y2894381D01*
G01X918312Y2892298D01*
G01X918616Y2891079D01*
G01X919074Y2889860D01*
G01X919531Y2888945D01*
G01X920140Y2888183D01*
G01X920902Y2887421D01*
G01X921817Y2886659D01*
G01X922884Y2886050D01*
G01X924103Y2885440D01*
G01X925779Y2884830D01*
G01X927710Y2884221D01*
G01X929538Y2883814D01*
G01X932586Y2883205D01*
G01X936193Y2882595D01*
G01X937717Y2882290D01*
G01X939546Y2881986D01*
G01X945591Y2880766D01*
G01X947268Y2880309D01*
G01X950316Y2879395D01*
G01X951687Y2878785D01*
G01X953160Y2878176D01*
G01X954684Y2877414D01*
G01X955751Y2876652D01*
G01X956666Y2876194D01*
G01X957580Y2875585D01*
G01X959866Y2873350D01*
G01X960780Y2872283D01*
G01X961492Y2871064D01*
G01X961949Y2869997D01*
G01X962406Y2868778D01*
G01X962863Y2867406D01*
G01X963168Y2866238D01*
G01X963320Y2865018D01*
G01X963473Y2863190D01*
G01Y2861666D01*
G01X963168Y2858922D01*
G01X962863Y2857602D01*
G01X962406Y2855773D01*
G01X961796Y2854401D01*
G01X960628Y2851963D01*
G01X959866Y2850744D01*
G01X959104Y2849677D01*
G01X958494Y2848966D01*
G01X955904Y2846375D01*
G01X954380Y2845308D01*
G01X953313Y2844546D01*
G01X952297Y2843936D01*
G01X949858Y2842717D01*
G01X948487Y2842108D01*
G01X945744Y2841193D01*
G01X944220Y2840736D01*
G01X942899Y2840431D01*
G01X940765Y2840177D01*
G01X937412Y2839872D01*
G01X933958Y2839720D01*
G01X930758Y2839872D01*
G01X929234Y2840025D01*
G01X927100Y2840177D01*
G01X925017Y2840431D01*
G01X923188Y2840736D01*
G01X921512Y2841041D01*
G01X919226Y2841498D01*
G01X917753Y2841955D01*
G01X916534Y2842260D01*
G01X912419Y2843632D01*
G01X909371Y2844851D01*
G01X908202Y2845308D01*
G01X907745Y2846934D01*
G01X907593Y2851506D01*
G01X875132D01*
G01Y2841193D01*
G01X865480D01*
G01Y2856535D01*
G01X865327Y2868168D01*
G01X865022Y2872588D01*
G01X863498Y2875026D01*
G01X862584Y2876499D01*
G01X861060Y2878938D01*
G01X860146Y2880462D01*
G01X858622Y2882900D01*
G01X856844Y2885897D01*
G01X855320Y2888336D01*
G01X854405Y2889860D01*
G01X852881Y2892298D01*
G01X851967Y2893771D01*
G01X850443Y2896210D01*
G01X848614Y2899258D01*
G01X847141Y2901645D01*
G01X846226Y2903169D01*
G01X844702Y2905608D01*
G01X843788Y2907132D01*
G01X842264Y2909570D01*
G01X841350Y2911043D01*
G01X840588Y2912262D01*
G01X840130Y2913177D01*
G01X820776D01*
G01X822401Y2912720D01*
G01X825449Y2911805D01*
G01X828192Y2910891D01*
G01X829716Y2910281D01*
G01X830631Y2909976D01*
G01Y2904998D01*
G01X830478Y2899258D01*
G01X830224Y2898750D01*
G01X829869Y2898800D01*
G01X828650Y2899715D01*
G01X827126Y2900782D01*
G01X825906Y2901493D01*
G01X823468Y2902712D01*
G01X822096Y2903322D01*
G01X820623Y2903931D01*
G01X818947Y2904541D01*
G01X816966Y2905150D01*
G01X815594Y2905608D01*
G01X812597Y2906217D01*
G01X810158Y2906522D01*
G01X806044Y2906674D01*
G01X801675Y2906522D01*
G01X799846Y2906217D01*
G01X798322Y2905912D01*
G01X797103Y2905608D01*
G01X795934Y2905150D01*
G01X793496Y2903931D01*
G01X792429Y2903322D01*
G01X791515Y2902560D01*
G01X789991Y2901086D01*
G01X789381Y2900324D01*
G01X788924Y2899410D01*
G01X788467Y2898191D01*
G01X788162Y2895752D01*
G01X788314Y2892857D01*
G01X788772Y2890926D01*
G01X789381Y2889555D01*
G01X789991Y2888640D01*
G01X790600Y2887878D01*
G01X791667Y2886964D01*
G01X793039Y2886050D01*
G01X794258Y2885440D01*
G01X795782Y2884830D01*
G01X797103Y2884373D01*
G01X799541Y2883814D01*
G01X802894Y2883205D01*
G01X804418Y2882900D01*
G01X808025Y2882290D01*
G01X814070Y2881071D01*
G01X816204Y2880614D01*
G01X817728Y2880157D01*
G01X818947Y2879852D01*
G01X820318Y2879395D01*
G01X821842Y2878785D01*
G01X823163Y2878176D01*
G01X824382Y2877566D01*
G01X825754Y2876804D01*
G01X826973Y2876042D01*
G01X829716Y2873807D01*
G01X830631Y2872588D01*
G01X831494Y2871216D01*
G01X832104Y2869997D01*
G01X832714Y2868320D01*
G01X833171Y2866796D01*
G01X833476Y2864714D01*
G01X833628Y2862428D01*
G01X833476Y2860142D01*
G01X833323Y2859075D01*
G01X833018Y2857602D01*
G01X832561Y2856230D01*
G01X832256Y2855163D01*
G01X831799Y2854096D01*
G01X831190Y2852877D01*
G01X830478Y2851506D01*
G01X829869Y2850439D01*
G01X829259Y2849677D01*
G01X827430Y2847594D01*
G01X826668Y2846984D01*
G01X825602Y2846070D01*
G01X824078Y2845003D01*
G01X822858Y2844241D01*
G01X820776Y2843022D01*
G01X819404Y2842412D01*
G01X817728Y2841803D01*
G01X815899Y2841193D01*
G01X814375Y2840736D01*
G01X811073Y2840177D01*
G01X807415Y2839872D01*
G01X803961Y2839720D01*
G01X800760Y2839872D01*
G01X799236Y2840025D01*
G01X797408Y2840177D01*
G01X796341Y2840330D01*
G01X795020Y2840431D01*
G01X793191Y2840736D01*
G01X791667Y2841041D01*
G01X790296Y2841346D01*
G01X788314Y2841803D01*
G01X786232Y2842412D01*
G01X784250Y2843022D01*
G01X780898Y2844241D01*
G01X779526Y2844851D01*
G01X778358Y2845308D01*
G01X777596Y2845460D01*
G01X771195D01*
G01Y2820010D01*
G01X2208784D01*
G01Y2941523D01*
G37*
G36*
G01X1332281Y2918511D02*
G01X1327404Y2918358D01*
G01X1324712Y2918054D01*
G01X1321664Y2917444D01*
G01X1320292Y2917139D01*
G01X1318768Y2916682D01*
G01X1316076Y2915463D01*
G01X1313332Y2913634D01*
G01X1312418Y2912872D01*
G01X1311808Y2912110D01*
G01X1311199Y2911043D01*
G01X1310589Y2909722D01*
G01X1310132Y2907894D01*
G01Y2905608D01*
G01X1310437Y2903779D01*
G01X1310894Y2902407D01*
G01X1311504Y2901239D01*
G01X1312113Y2900324D01*
G01X1312723Y2899562D01*
G01X1314247Y2898343D01*
G01X1315161Y2897581D01*
G01X1316228Y2896972D01*
G01X1317447Y2896362D01*
G01X1319073Y2895752D01*
G01X1320444Y2895295D01*
G01X1321664Y2894990D01*
G01X1323188Y2894686D01*
G01X1324407Y2894381D01*
G01X1326083Y2894228D01*
G01X1327404Y2894076D01*
G01X1331519Y2893924D01*
G01X1335888Y2894076D01*
G01X1336954Y2894228D01*
G01X1338326Y2894381D01*
G01X1339545Y2894686D01*
G01X1341679Y2894990D01*
G01X1342746Y2895295D01*
G01X1344219Y2895752D01*
G01X1345895Y2896362D01*
G01X1347267Y2896972D01*
G01X1348334Y2897429D01*
G01X1349096Y2898038D01*
G01X1350924Y2899562D01*
G01X1351686Y2900324D01*
G01X1352296Y2901086D01*
G01X1352753Y2901950D01*
G01X1353160Y2903322D01*
G01X1353464Y2904693D01*
G01X1353617Y2905912D01*
G01X1353464Y2907132D01*
G01X1353312Y2908198D01*
G01X1353007Y2909570D01*
G01X1352448Y2910891D01*
G01X1351839Y2912110D01*
G01X1350772Y2913329D01*
G01X1349553Y2914244D01*
G01X1348791Y2914853D01*
G01X1348029Y2915310D01*
G01X1345286Y2916682D01*
G01X1344066Y2917139D01*
G01X1342746Y2917444D01*
G01X1341069Y2917749D01*
G01X1339850Y2918054D01*
G01X1337107Y2918358D01*
G37*
G36*
G01X2177136Y2907284D02*
G01X2175612Y2907132D01*
G01X2174392Y2906979D01*
G01X2172564Y2906674D01*
G01X2170735Y2906065D01*
G01X2169566Y2905455D01*
G01X2168652Y2904846D01*
G01X2167128Y2903626D01*
G01X2166214Y2902560D01*
G01X2165452Y2901493D01*
G01X2164842Y2900477D01*
G01X2164232Y2899105D01*
G01X2163623Y2897581D01*
G01X2163166Y2896210D01*
G01X2162556Y2893162D01*
G01X2162251Y2891079D01*
G01X2161946Y2887726D01*
G01X2161692Y2881681D01*
G01X2161540Y2877566D01*
G01X2161692Y2873502D01*
G01X2161946Y2867101D01*
G01X2162251Y2864104D01*
G01X2162556Y2861970D01*
G01X2162861Y2860294D01*
G01X2163318Y2858465D01*
G01X2163775Y2857144D01*
G01X2164232Y2855925D01*
G01X2165452Y2853487D01*
G01X2166061Y2852420D01*
G01X2166823Y2851506D01*
G01X2168347Y2849982D01*
G01X2169414Y2849220D01*
G01X2170582Y2848661D01*
G01X2171802Y2848204D01*
G01X2173326Y2847899D01*
G01X2174392Y2847746D01*
G01X2176069Y2847594D01*
G01X2178964Y2847746D01*
G01X2181352Y2848204D01*
G01X2183181Y2848813D01*
G01X2184552Y2849524D01*
G01X2185619Y2850286D01*
G01X2187143Y2851810D01*
G01X2188007Y2852877D01*
G01X2188769Y2854096D01*
G01X2189683Y2856230D01*
G01X2190140Y2857449D01*
G01X2190598Y2859227D01*
G01X2191055Y2860751D01*
G01X2191360Y2862885D01*
G01X2191664Y2865323D01*
G01X2191969Y2869540D01*
G01X2192122Y2876804D01*
G01X2191969Y2884068D01*
G01X2191664Y2888336D01*
G01X2191360Y2891079D01*
G01X2191055Y2892857D01*
G01X2190598Y2895295D01*
G01X2189988Y2897276D01*
G01X2189378Y2898800D01*
G01X2188769Y2900172D01*
G01X2188007Y2901493D01*
G01X2187143Y2902864D01*
G01X2185924Y2904236D01*
G01X2184705Y2905150D01*
G01X2183790Y2905760D01*
G01X2182419Y2906370D01*
G01X2181047Y2906827D01*
G01X2178660Y2907132D01*
G37*
G36*
G01X1723339Y2907284D02*
G01X1721663Y2907132D01*
G01X1719224Y2906827D01*
G01X1717294Y2906370D01*
G01X1715922Y2905760D01*
G01X1714856Y2905150D01*
G01X1713941Y2904541D01*
G01X1712722Y2903474D01*
G01X1711808Y2902255D01*
G01X1711198Y2901493D01*
G01X1710588Y2900477D01*
G01X1709979Y2899105D01*
G01X1709115Y2896362D01*
G01X1708658Y2894533D01*
G01X1708353Y2892857D01*
G01X1708048Y2890774D01*
G01X1707744Y2887116D01*
G01X1707591Y2882900D01*
G01X1707439Y2878328D01*
G01Y2877109D01*
G01X1707744Y2867406D01*
G01X1708048Y2864409D01*
G01X1708353Y2862275D01*
G01X1708658Y2860751D01*
G01X1709115Y2858770D01*
G01X1709522Y2857449D01*
G01X1709826Y2856382D01*
G01X1710284Y2855316D01*
G01X1710893Y2854096D01*
G01X1711503Y2853030D01*
G01X1711960Y2852268D01*
G01X1712570Y2851506D01*
G01X1713332Y2850744D01*
G01X1714398Y2849829D01*
G01X1715465Y2849067D01*
G01X1716684Y2848508D01*
G01X1718056Y2848051D01*
G01X1719224Y2847899D01*
G01X1720139Y2847746D01*
G01X1721815Y2847594D01*
G01X1724711Y2847746D01*
G01X1727098Y2848204D01*
G01X1728927Y2848813D01*
G01X1730146Y2849372D01*
G01X1731061Y2849982D01*
G01X1732128Y2850896D01*
G01X1733347Y2852268D01*
G01X1734261Y2853639D01*
G01X1734871Y2854706D01*
G01X1735480Y2856078D01*
G01X1736496Y2859227D01*
G01X1737106Y2862580D01*
G01X1737411Y2865018D01*
G01X1737716Y2868930D01*
G01X1737868Y2876804D01*
G01X1737716Y2884678D01*
G01X1737563Y2886202D01*
G01X1737411Y2888640D01*
G01X1737106Y2891384D01*
G01X1736801Y2893162D01*
G01X1736496Y2894533D01*
G01X1736039Y2896362D01*
G01X1735480Y2898191D01*
G01X1734871Y2899562D01*
G01X1734261Y2900782D01*
G01X1733652Y2901798D01*
G01X1732890Y2902864D01*
G01X1731670Y2904236D01*
G01X1730451Y2905150D01*
G01X1729537Y2905760D01*
G01X1728165Y2906370D01*
G01X1726844Y2906827D01*
G01X1724406Y2907132D01*
G37*
G36*
G01X1950618Y2907284D02*
G01X1948637Y2907132D01*
G01X1946199Y2906827D01*
G01X1944522Y2906370D01*
G01X1943202Y2905760D01*
G01X1941678Y2904998D01*
G01X1940611Y2904084D01*
G01X1939849Y2903322D01*
G01X1938630Y2901798D01*
G01X1937868Y2900782D01*
G01X1937258Y2899410D01*
G01X1936344Y2896972D01*
G01X1935886Y2895448D01*
G01X1935632Y2894076D01*
G01X1935328Y2891993D01*
G01X1935023Y2889250D01*
G01X1934718Y2884983D01*
G01X1934566Y2877414D01*
G01X1934718Y2869844D01*
G01X1934870Y2868016D01*
G01X1935023Y2865628D01*
G01X1935328Y2863190D01*
G01X1935632Y2861361D01*
G01X1935734Y2860294D01*
G01X1936039Y2859075D01*
G01X1936953Y2856382D01*
G01X1937563Y2855011D01*
G01X1938325Y2853487D01*
G01X1939087Y2852420D01*
G01X1939544Y2851658D01*
G01X1940458Y2850591D01*
G01X1941678Y2849677D01*
G01X1942592Y2849067D01*
G01X1943659Y2848661D01*
G01X1944827Y2848204D01*
G01X1946351Y2847899D01*
G01X1947418Y2847746D01*
G01X1949399Y2847594D01*
G01X1951685Y2847746D01*
G01X1952752Y2847899D01*
G01X1954225Y2848204D01*
G01X1955902Y2848813D01*
G01X1957426Y2849524D01*
G01X1958492Y2850286D01*
G01X1959254Y2850896D01*
G01X1960016Y2851658D01*
G01X1960931Y2852877D01*
G01X1961794Y2854401D01*
G01X1962404Y2855773D01*
G01X1963318Y2858465D01*
G01X1963776Y2860142D01*
G01X1964080Y2861666D01*
G01X1964385Y2863799D01*
G01X1964690Y2866796D01*
G01X1964995Y2874416D01*
G01X1965147Y2876804D01*
G01X1964995Y2879242D01*
G01X1964690Y2886812D01*
G01X1964538Y2888183D01*
G01X1964385Y2890164D01*
G01X1964080Y2892298D01*
G01X1963471Y2895295D01*
G01X1963014Y2896972D01*
G01X1962556Y2898191D01*
G01X1962099Y2899258D01*
G01X1961540Y2900477D01*
G01X1960778Y2901798D01*
G01X1960016Y2902864D01*
G01X1958492Y2904388D01*
G01X1957578Y2905150D01*
G01X1956511Y2905760D01*
G01X1955140Y2906370D01*
G01X1953768Y2906827D01*
G37*
G36*
G01X1197712Y2906979D02*
G01X1194410Y2906827D01*
G01X1192276Y2906522D01*
G01X1190142Y2906065D01*
G01X1188314Y2905455D01*
G01X1186840Y2904846D01*
G01X1185621Y2904236D01*
G01X1184402Y2903474D01*
G01X1183335Y2902712D01*
G01X1181049Y2900934D01*
G01X1180287Y2900172D01*
G01X1178509Y2897734D01*
G01X1176985Y2895295D01*
G01X1176376Y2894076D01*
G01X1175766Y2892450D01*
G01X1175156Y2890926D01*
G01X1174699Y2889402D01*
G01X1174394Y2888031D01*
G01X1173785Y2884678D01*
G01X1173480Y2881376D01*
G01X1173328Y2877718D01*
G01X1173480Y2874112D01*
G01X1173632Y2872892D01*
G01X1173785Y2871064D01*
G01X1174394Y2867406D01*
G01X1174852Y2865323D01*
G01X1175461Y2863342D01*
G01X1176071Y2861818D01*
G01X1176680Y2860446D01*
G01X1177290Y2859227D01*
G01X1177900Y2858160D01*
G01X1178509Y2857297D01*
G01X1179220Y2856230D01*
G01X1180135Y2855163D01*
G01X1180744Y2854401D01*
G01X1181354Y2853792D01*
G01X1182116Y2853182D01*
G01X1182878Y2852420D01*
G01X1183945Y2851658D01*
G01X1185164Y2850896D01*
G01X1186231Y2850286D01*
G01X1187145Y2849829D01*
G01X1188161Y2849372D01*
G01X1189838Y2848813D01*
G01X1191362Y2848356D01*
G01X1192886Y2848204D01*
G01X1194105Y2848051D01*
G01X1196188Y2847899D01*
G01X1199540Y2848051D01*
G01X1201674Y2848356D01*
G01X1203198Y2848661D01*
G01X1204417Y2848966D01*
G01X1205738Y2849372D01*
G01X1207110Y2849982D01*
G01X1208329Y2850591D01*
G01X1209700Y2851353D01*
G01X1210920Y2852115D01*
G01X1211834Y2852877D01*
G01X1212596Y2853487D01*
G01X1213206Y2854096D01*
G01X1213764Y2854858D01*
G01X1214831Y2855925D01*
G01X1215746Y2857144D01*
G01X1216355Y2858008D01*
G01X1217574Y2860142D01*
G01X1218184Y2861361D01*
G01X1218794Y2863037D01*
G01X1219403Y2865018D01*
G01X1219860Y2866492D01*
G01X1220470Y2870149D01*
G01X1220775Y2874112D01*
G01X1220927Y2876804D01*
G01X1220775Y2879547D01*
G01X1220622Y2881224D01*
G01X1220470Y2883510D01*
G01X1219860Y2887116D01*
G01X1219403Y2889250D01*
G01X1218794Y2891231D01*
G01X1218184Y2892857D01*
G01X1216203Y2896819D01*
G01X1215441Y2897886D01*
G01X1214831Y2898800D01*
G01X1214069Y2899715D01*
G01X1211834Y2901950D01*
G01X1210767Y2902864D01*
G01X1209700Y2903626D01*
G01X1208634Y2904236D01*
G01X1207414Y2904846D01*
G01X1206043Y2905455D01*
G01X1204112Y2906065D01*
G01X1202588Y2906522D01*
G01X1200455Y2906827D01*
G37*
G36*
G01X1100023Y2905455D02*
G01X1100023Y2877566D01*
G01X1100176Y2849524D01*
G01X1107135Y2849372D01*
G01X1114400Y2849524D01*
G01X1115771Y2849677D01*
G01X1117752Y2849829D01*
G01X1119835Y2850134D01*
G01X1121359Y2850439D01*
G01X1122731Y2850744D01*
G01X1124560Y2851201D01*
G01X1126236Y2851810D01*
G01X1127709Y2852420D01*
G01X1128928Y2853030D01*
G01X1129995Y2853639D01*
G01X1131214Y2854401D01*
G01X1132281Y2855163D01*
G01X1133805Y2856382D01*
G01X1136345Y2858922D01*
G01X1137260Y2860142D01*
G01X1137869Y2860904D01*
G01X1138479Y2861970D01*
G01X1139088Y2863190D01*
G01X1140003Y2865323D01*
G01X1140460Y2866796D01*
G01X1140917Y2868473D01*
G01X1141222Y2869692D01*
G01X1141374Y2870759D01*
G01X1141679Y2874112D01*
G01X1141832Y2876804D01*
G01X1141679Y2879547D01*
G01X1141527Y2880919D01*
G01X1141374Y2882900D01*
G01X1141070Y2884678D01*
G01X1140765Y2885897D01*
G01X1140460Y2887269D01*
G01X1140003Y2888945D01*
G01X1138784Y2891688D01*
G01X1138174Y2892857D01*
G01X1137412Y2894076D01*
G01X1136650Y2895143D01*
G01X1134872Y2897429D01*
G01X1133348Y2898648D01*
G01X1132586Y2899410D01*
G01X1131519Y2900172D01*
G01X1130300Y2900934D01*
G01X1129233Y2901493D01*
G01X1126795Y2902712D01*
G01X1125626Y2903169D01*
G01X1122883Y2904084D01*
G01X1121664Y2904388D01*
G01X1118311Y2904998D01*
G01X1115009Y2905303D01*
G01X1107288Y2905455D01*
G37*
G36*
G01X1856384Y2901645D02*
G01X1855622Y2901239D01*
G01X1848358Y2892704D01*
G01X1847139Y2891231D01*
G01X1846072Y2890164D01*
G01X1845158Y2888945D01*
G01X1844396Y2888183D01*
G01X1829867Y2871216D01*
G01X1829105Y2870302D01*
G01X1828952Y2869540D01*
G01X1842872Y2869387D01*
G01X1856689D01*
G01Y2885592D01*
G01X1856588Y2897734D01*
G37*
G04 Text End*

G04 PolygonModel Start*
G54D12*
G01X563751Y1167087D02*
G01X563751Y1145924D01*
G01X563751Y1854076D02*
G01X563751Y1832913D01*
G01X403752Y1949999D02*
G01X407960Y1949999D01*
G01X403752Y1949999D02*
G01X259520Y1949999D01*
G01X263752Y1050001D02*
G01X408760Y1050001D01*
G01X23630Y1950075D02*
G01X25916Y1950075D01*
G01X25916Y1950075D02*
G01X-116324Y1950075D01*
G01X-116324Y1950075D02*
G01X-116324Y1049899D01*
G01X-116324Y1049899D02*
G01X23630Y1049899D01*
G01X423752Y1540003D02*
G01X443751Y1540003D01*
G01X383752Y1400003D02*
G01X423752Y1400003D01*
G01X423752Y1400003D02*
G01X423752Y1460003D01*
G01X423752Y1460003D02*
G01X443751Y1460003D01*
G01X383752Y1600002D02*
G01X423752Y1600002D01*
G01X423752Y1600002D02*
G01X423752Y1540003D01*
G01X383752Y1601003D02*
G01X383752Y1399002D01*
G54D13*
G01X427Y1781767D02*
G01X250617Y1731983D01*
G01X250617Y1731983D02*
G01X250617Y1601935D01*
G01X250617Y1601935D02*
G01X427Y1551897D01*
G01X427Y1551897D02*
G01X427Y1601427D01*
G01X427Y1601427D02*
G01X210485Y1641305D01*
G01X210485Y1641305D02*
G01X210485Y1694137D01*
G01X210485Y1694137D02*
G01X427Y1734269D01*
G01X427Y1734269D02*
G01X427Y1781767D01*
G01X130475Y1751795D02*
G01X130475Y1711917D01*
G01X130506Y1621859D02*
G01X130506Y1581859D01*
G01X131014Y1294181D02*
G01X131014Y1254181D01*
G01X130983Y1424118D02*
G01X130983Y1384240D01*
G01X935Y1454090D02*
G01X251125Y1404306D01*
G01X251125Y1404306D02*
G01X251125Y1274258D01*
G01X251125Y1274258D02*
G01X935Y1224220D01*
G01X935Y1224220D02*
G01X935Y1273750D01*
G01X935Y1273750D02*
G01X210993Y1313628D01*
G01X210993Y1313628D02*
G01X210993Y1366460D01*
G01X210993Y1366460D02*
G01X935Y1406592D01*
G01X935Y1406592D02*
G01X935Y1454090D01*
G01X3014998Y1654285D02*
G01X2810000Y1654285D01*
G01X2810000Y1654285D02*
G01X2810000Y1854000D01*
G01X2810000Y1854000D02*
G01X3014998Y1854000D01*
G01X3014998Y1146285D02*
G01X2810000Y1146285D01*
G01X2810000Y1146285D02*
G01X2810000Y1346000D01*
G01X2810000Y1346000D02*
G01X3014998Y1346000D01*
G01X2360001Y2008000D02*
G01X2360001Y992000D01*
G01X2205002Y992000D02*
G01X3014998Y992000D01*
G01X3014998Y992000D02*
G01X3014998Y1730635D01*
G01X3014998Y1730635D02*
G01X3014874Y2008000D01*
G01X3014874Y2008000D02*
G01X2205002Y2008000D01*
G01X2205002Y2008000D02*
G01X2205002Y1638981D01*
G01X2205002Y1638981D02*
G01X2205002Y992000D01*
G36*
G01X3014998Y1246000D02*
G01X3014998Y1226000D01*
G01X2910000D01*
G01Y1186000D01*
G01X2850000Y1246000D01*
G01X2910000Y1306000D01*
G01Y1266000D01*
G01X3014998D01*
G01Y1246000D01*
G37*
G36*
G01X3014998Y1754000D02*
G01X3014998Y1734000D01*
G01X2910000D01*
G01Y1694000D01*
G01X2850000Y1754000D01*
G01X2910000Y1814000D01*
G01Y1774000D01*
G01X3014998D01*
G01Y1754000D01*
G37*
G54D10*
G01X1002380Y1741709D02*
G01X873887Y1741709D01*
G01X873887Y1741709D02*
G01X873887Y1558291D01*
G01X873887Y1558291D02*
G01X1002380Y1558291D01*
G01X1097620Y1741709D02*
G01X1226113Y1741709D01*
G01X1226113Y1741709D02*
G01X1226113Y1558291D01*
G01X1226113Y1558291D02*
G01X1097620Y1558291D01*
G01X1002380Y1541709D02*
G01X873887Y1541709D01*
G01X873887Y1541709D02*
G01X873887Y1358291D01*
G01X873887Y1358291D02*
G01X1002380Y1358291D01*
G01X1097620Y1541709D02*
G01X1226113Y1541709D01*
G01X1226113Y1541709D02*
G01X1226113Y1358291D01*
G01X1226113Y1358291D02*
G01X1097620Y1358291D01*
G01X1909640Y1831120D02*
G01X1909640Y1690119D01*
G01X2090361Y1690119D02*
G01X2090361Y1831120D01*
G01X2075121Y1846360D02*
G01X1924880Y1846360D01*
G01X1909640Y1468880D02*
G01X1909640Y1609881D01*
G01X2090361Y1609881D02*
G01X2090361Y1468880D01*
G01X2075121Y1453640D02*
G01X1924880Y1453640D01*
G01X2090361Y1831120D02*
G03X2075121Y1846360I-15240J0D01*
G01X1924880Y1846360D02*
G03X1909640Y1831120I0J-15240D01*
G01X2090361Y1468880D02*
G02X2075121Y1453640I-15240J0D01*
G01X1924880Y1453640D02*
G02X1909640Y1468880I0J15240D01*
G01X868880Y1159640D02*
G01X1009881Y1159640D01*
G01X1009881Y1340361D02*
G01X868880Y1340361D01*
G01X853640Y1325121D02*
G01X853640Y1174880D01*
G01X1231120Y1159640D02*
G01X1090119Y1159640D01*
G01X1090119Y1340361D02*
G01X1231120Y1340361D01*
G01X1246360Y1325121D02*
G01X1246360Y1174880D01*
G01X868880Y1340361D02*
G03X853640Y1325121I0J-15240D01*
G01X853640Y1174880D02*
G03X868880Y1159640I15240J0D01*
G01X1231120Y1340361D02*
G02X1246360Y1325121I0J-15240D01*
G01X1246360Y1174880D02*
G02X1231120Y1159640I-15240J0D01*
G54D13*
G01X1550000Y1630000D02*
G01X1510000Y1670000D01*
G01X1510000Y1670000D02*
G01X1500000Y1680000D01*
G01X1500000Y1680000D02*
G01X1489975Y1670000D01*
G01X1489975Y1670000D02*
G01X1449975Y1630000D01*
G01X1550000Y1630000D02*
G01X1449975Y1630000D01*
G01X1398273Y1605677D02*
G01X1398273Y1450737D01*
G01X1398273Y1450737D02*
G01X1601473Y1450737D01*
G01X1601473Y1450737D02*
G01X1601473Y1605677D01*
G01X1395733Y1684417D02*
G01X1395733Y1831737D01*
G01X1395733Y1831737D02*
G01X1436373Y1872377D01*
G01X1436373Y1872377D02*
G01X1563373Y1872377D01*
G01X1563373Y1872377D02*
G01X1601473Y1834277D01*
G01X1601473Y1834277D02*
G01X1601473Y1681877D01*
G54D10*
G01X1791709Y1697620D02*
G01X1791709Y1826113D01*
G01X1791709Y1826113D02*
G01X1608291Y1826113D01*
G01X1608291Y1826113D02*
G01X1608291Y1697620D01*
G01X1791709Y1602380D02*
G01X1791709Y1473887D01*
G01X1791709Y1473887D02*
G01X1608291Y1473887D01*
G01X1608291Y1473887D02*
G01X1608291Y1602380D01*
G01X868880Y1759640D02*
G01X1009881Y1759640D01*
G01X1009881Y1940361D02*
G01X868880Y1940361D01*
G01X853640Y1925121D02*
G01X853640Y1774880D01*
G01X1231120Y1759640D02*
G01X1090119Y1759640D01*
G01X1090119Y1940361D02*
G01X1231120Y1940361D01*
G01X1246360Y1925121D02*
G01X1246360Y1774880D01*
G01X868880Y1940361D02*
G03X853640Y1925121I0J-15240D01*
G01X853640Y1774880D02*
G03X868880Y1759640I15240J0D01*
G01X1231120Y1940361D02*
G02X1246360Y1925121I0J-15240D01*
G01X1246360Y1774880D02*
G02X1231120Y1759640I-15240J0D01*
G04 PolygonModel End*

M02*
