G04 Layer: BottomLayer*
G04 EasyEDA Pro v2.1.51, 2024-03-10 10:17:56*
G04 Gerber Generator version 0.3*
G04 Scale: 100 percent, Rotated: No, Reflected: No*
G04 Dimensions in millimeters*
G04 Leading zeros omitted, absolute positions, 3 integers and 5 decimals*
%FSLAX35Y35*%
%MOMM*%
%ADD10C,1.0*%
%ADD11O,1.9X1.1*%
%ADD12R,2.2X2.2*%
%ADD13C,2.2*%
%ADD14C,7.5*%
%ADD15C,0.61*%
G75*

G54D10*

G04 Copper Start*
G01X143747Y1068010D02*
G01X143747Y1153517D01*
G01X143747Y1068010D02*
G01X143747Y982502D01*
G01X143747Y1068010D02*
G01X269255Y1068010D01*
G01X143747Y1931991D02*
G01X143747Y2017498D01*
G01X143747Y1931991D02*
G01X143747Y1846483D01*
G01X143747Y1931991D02*
G01X269255Y1931991D01*
G01X500000Y500000D02*
G01X94492Y500000D01*
G01X500000Y500000D02*
G01X905508Y500000D01*
G01X500000Y500000D02*
G01X500000Y905508D01*
G01X500000Y500000D02*
G01X500000Y94492D01*
G01X500000Y2500000D02*
G01X94492Y2500000D01*
G01X500000Y2500000D02*
G01X905508Y2500000D01*
G01X500000Y2500000D02*
G01X500000Y2905508D01*
G01X500000Y2500000D02*
G01X500000Y2094492D01*
G01X523756Y1068010D02*
G01X523756Y1153517D01*
G01X523756Y1068010D02*
G01X523756Y982502D01*
G01X523756Y1068010D02*
G01X649264Y1068010D01*
G01X523756Y1068010D02*
G01X398249Y1068010D01*
G01X523756Y1931991D02*
G01X523756Y2017498D01*
G01X523756Y1931991D02*
G01X523756Y1846483D01*
G01X523756Y1931991D02*
G01X649264Y1931991D01*
G01X523756Y1931991D02*
G01X398249Y1931991D01*
G01X2500000Y2500000D02*
G01X2094492Y2500000D01*
G01X2500000Y2500000D02*
G01X2905508Y2500000D01*
G01X2500000Y2500000D02*
G01X2500000Y2905508D01*
G01X2500000Y2500000D02*
G01X2500000Y2094492D01*
G01X2500000Y500000D02*
G01X2094492Y500000D01*
G01X2500000Y500000D02*
G01X2905508Y500000D01*
G01X2500000Y500000D02*
G01X2500000Y905508D01*
G01X2500000Y500000D02*
G01X2500000Y94492D01*
G01X2610000Y1246000D02*
G01X2610000Y1105492D01*
G01X2610000Y1246000D02*
G01X2610000Y1386508D01*
G01X2610000Y1246000D02*
G01X2469492Y1246000D01*
G01X2610000Y1246000D02*
G01X2750508Y1246000D01*
G04 Copper End*

G04 PolygonModel Start*
G36*
G01X500024Y2974340D02*
G01X407467Y2965247D01*
G01X318465Y2938221D01*
G01X236474Y2894381D01*
G01X164592Y2835402D01*
G01X105613Y2763520D01*
G01X61773Y2681529D01*
G01X34747Y2592527D01*
G01X25654Y2500020D01*
G01X94742D01*
G01X102514Y2579065D01*
G01X125578Y2655062D01*
G01X163068Y2725166D01*
G01X213462Y2786583D01*
G01X274828Y2836977D01*
G01X344932Y2874416D01*
G01X420929Y2897480D01*
G01X500024Y2905252D01*
G01X579069Y2897480D01*
G01X655066Y2874416D01*
G01X725170Y2836977D01*
G01X786536Y2786583D01*
G01X836981Y2725166D01*
G01X874420Y2655062D01*
G01X897484Y2579065D01*
G01X905256Y2500020D01*
G01X2094738D01*
G01X2102510Y2579065D01*
G01X2125574Y2655062D01*
G01X2163064Y2725166D01*
G01X2213458Y2786583D01*
G01X2274875Y2836977D01*
G01X2344928Y2874416D01*
G01X2420925Y2897480D01*
G01X2500020Y2905252D01*
G01X2579065Y2897480D01*
G01X2655062Y2874416D01*
G01X2725166Y2836977D01*
G01X2786583Y2786583D01*
G01X2836977Y2725166D01*
G01X2874416Y2655062D01*
G01X2897480Y2579065D01*
G01X2905252Y2500020D01*
G01X2897480Y2420925D01*
G01X2874416Y2344928D01*
G01X2836977Y2274875D01*
G01X2786583Y2213458D01*
G01X2725166Y2163064D01*
G01X2655062Y2125574D01*
G01X2579065Y2102510D01*
G01X2500020Y2094738D01*
G01X2420925Y2102510D01*
G01X2344928Y2125574D01*
G01X2274875Y2163064D01*
G01X2213458Y2213458D01*
G01X2163064Y2274875D01*
G01X2125574Y2344928D01*
G01X2102510Y2420925D01*
G01X2094738Y2500020D01*
G01X905256D01*
G01X897484Y2420925D01*
G01X874420Y2344928D01*
G01X836981Y2274875D01*
G01X786536Y2213458D01*
G01X725170Y2163064D01*
G01X655066Y2125574D01*
G01X579069Y2102510D01*
G01X500024Y2094738D01*
G01X420929Y2102510D01*
G01X344932Y2125574D01*
G01X274828Y2163064D01*
G01X213462Y2213458D01*
G01X163068Y2274875D01*
G01X125578Y2344928D01*
G01X102514Y2420925D01*
G01X94742Y2500020D01*
G01X25654D01*
G01Y1998980D01*
G01X28651Y1991817D01*
G01X35814Y1988820D01*
G01X39726Y1989633D01*
G01X43028Y1991868D01*
G01X70866Y2010664D01*
G01X103734Y2017268D01*
G01X183744D01*
G01X216357Y2010766D01*
G01X244043Y1992274D01*
G01X262534Y1964639D01*
G01X268986Y1931975D01*
G01X398526D01*
G01X404978Y1964639D01*
G01X423469Y1992274D01*
G01X451155Y2010766D01*
G01X483768Y2017268D01*
G01X563778D01*
G01X596392Y2010766D01*
G01X624027Y1992274D01*
G01X642518Y1964639D01*
G01X649021Y1931975D01*
G01X642518Y1899361D01*
G01X624027Y1871726D01*
G01X596392Y1853235D01*
G01X563778Y1846732D01*
G01X483768D01*
G01X451155Y1853235D01*
G01X423469Y1871726D01*
G01X404978Y1899361D01*
G01X398526Y1931975D01*
G01X268986D01*
G01X262534Y1899361D01*
G01X244043Y1871726D01*
G01X216357Y1853235D01*
G01X183744Y1846732D01*
G01X103734D01*
G01X70866Y1853336D01*
G01X43028Y1872132D01*
G01X39726Y1874368D01*
G01X35814Y1875130D01*
G01X28651Y1872183D01*
G01X25654Y1864970D01*
G01Y1754022D01*
G01X2474366D01*
G01X2480970Y1795932D01*
G01X2500274Y1833728D01*
G01X2530246Y1863750D01*
G01X2568092Y1883004D01*
G01X2610002Y1889658D01*
G01X2651912Y1883004D01*
G01X2689758Y1863750D01*
G01X2719730Y1833728D01*
G01X2739034Y1795932D01*
G01X2745638Y1754022D01*
G01X2739034Y1712062D01*
G01X2719730Y1674266D01*
G01X2689758Y1644244D01*
G01X2651912Y1624990D01*
G01X2610002Y1618336D01*
G01X2568092Y1624990D01*
G01X2530246Y1644244D01*
G01X2500274Y1674266D01*
G01X2480970Y1712062D01*
G01X2474366Y1754022D01*
G01X25654D01*
G01Y1135024D01*
G01X28651Y1127811D01*
G01X35814Y1124864D01*
G01X39726Y1125626D01*
G01X43028Y1127862D01*
G01X70866Y1146658D01*
G01X103734Y1153262D01*
G01X183744D01*
G01X216357Y1146759D01*
G01X244043Y1128268D01*
G01X262534Y1100633D01*
G01X268986Y1068019D01*
G01X398526D01*
G01X404978Y1100633D01*
G01X423469Y1128268D01*
G01X451155Y1146759D01*
G01X483768Y1153262D01*
G01X563778D01*
G01X596392Y1146759D01*
G01X612496Y1135990D01*
G01X2469744D01*
G01Y1356004D01*
G01X2478583Y1377391D01*
G01X2500020Y1386230D01*
G01X2719984D01*
G01X2741371Y1377391D01*
G01X2750261Y1356004D01*
G01Y1135990D01*
G01X2741371Y1114603D01*
G01X2719984Y1105764D01*
G01X2500020D01*
G01X2478583Y1114603D01*
G01X2469744Y1135990D01*
G01X612496D01*
G01X624027Y1128268D01*
G01X642518Y1100633D01*
G01X649021Y1068019D01*
G01X642518Y1035406D01*
G01X624027Y1007720D01*
G01X596392Y989228D01*
G01X563778Y982777D01*
G01X483768D01*
G01X451155Y989228D01*
G01X423469Y1007720D01*
G01X404978Y1035406D01*
G01X398526Y1068019D01*
G01X268986D01*
G01X262534Y1035406D01*
G01X244043Y1007720D01*
G01X216357Y989228D01*
G01X183744Y982777D01*
G01X103734D01*
G01X70866Y989381D01*
G01X43028Y1008126D01*
G01X39726Y1010361D01*
G01X35814Y1011174D01*
G01X28651Y1008177D01*
G01X25654Y1001014D01*
G01Y500024D01*
G01X94742D01*
G01X102514Y579069D01*
G01X125578Y655066D01*
G01X163068Y725170D01*
G01X213462Y786536D01*
G01X274828Y836981D01*
G01X344932Y874420D01*
G01X420929Y897484D01*
G01X500024Y905256D01*
G01X579069Y897484D01*
G01X655066Y874420D01*
G01X725170Y836981D01*
G01X786536Y786536D01*
G01X836981Y725170D01*
G01X874420Y655066D01*
G01X897484Y579069D01*
G01X905256Y500024D01*
G01X2094738D01*
G01X2102510Y579069D01*
G01X2125574Y655066D01*
G01X2163064Y725170D01*
G01X2213458Y786536D01*
G01X2274875Y836981D01*
G01X2344928Y874420D01*
G01X2420925Y897484D01*
G01X2500020Y905256D01*
G01X2579065Y897484D01*
G01X2655062Y874420D01*
G01X2725166Y836981D01*
G01X2786583Y786536D01*
G01X2836977Y725170D01*
G01X2874416Y655066D01*
G01X2897480Y579069D01*
G01X2905252Y500024D01*
G01X2897480Y420929D01*
G01X2874416Y344932D01*
G01X2836977Y274828D01*
G01X2786583Y213462D01*
G01X2725166Y163068D01*
G01X2655062Y125578D01*
G01X2579065Y102514D01*
G01X2500020Y94742D01*
G01X2420925Y102514D01*
G01X2344928Y125578D01*
G01X2274875Y163068D01*
G01X2213458Y213462D01*
G01X2163064Y274828D01*
G01X2125574Y344932D01*
G01X2102510Y420929D01*
G01X2094738Y500024D01*
G01X905256D01*
G01X897484Y420929D01*
G01X874420Y344932D01*
G01X836981Y274828D01*
G01X786536Y213462D01*
G01X725170Y163068D01*
G01X655066Y125578D01*
G01X579069Y102514D01*
G01X500024Y94742D01*
G01X420929Y102514D01*
G01X344932Y125578D01*
G01X274828Y163068D01*
G01X213462Y213462D01*
G01X163068Y274828D01*
G01X125578Y344932D01*
G01X102514Y420929D01*
G01X94742Y500024D01*
G01X25654D01*
G01X34747Y407467D01*
G01X61773Y318465D01*
G01X105613Y236474D01*
G01X164592Y164592D01*
G01X236474Y105613D01*
G01X318465Y61773D01*
G01X407467Y34747D01*
G01X500024Y25654D01*
G01X2500020D01*
G01X2592527Y34747D01*
G01X2681529Y61773D01*
G01X2763520Y105613D01*
G01X2835402Y164592D01*
G01X2894381Y236474D01*
G01X2938221Y318465D01*
G01X2965247Y407467D01*
G01X2974340Y500024D01*
G01Y2500020D01*
G01X2965247Y2592527D01*
G01X2938221Y2681529D01*
G01X2894381Y2763520D01*
G01X2835402Y2835402D01*
G01X2763520Y2894381D01*
G01X2681529Y2938221D01*
G01X2592527Y2965247D01*
G01X2500020Y2974340D01*
G37*
G04 PolygonModel End*

G04 Pad Start*
G54D11*
G01X143747Y1068010D03*
G01X143747Y1931991D03*
G01X523756Y1068010D03*
G01X523756Y1931991D03*
G54D12*
G01X2610000Y1246000D03*
G54D13*
G01X2610000Y1754000D03*
G54D14*
G01X500000Y500000D03*
G01X2500000Y500000D03*
G01X2500000Y2500000D03*
G01X500000Y2500000D03*
G04 Pad End*

G04 Via Start*
G54D15*
G01X1300000Y1850000D03*
G01X1323502Y1650000D03*
G01X1323502Y1450000D03*
G01X1319861Y1250000D03*
G01X1500000Y1850000D03*
G01X2000000Y1400000D03*
G01X350000Y1769989D03*
G01X430000Y1769989D03*
G01X350000Y1230011D03*
G01X430000Y1230011D03*
G04 Via End*

M02*
